<?xml version="1.0" encoding="utf-8"?><svg preserveAspectRatio="none slice" width="655" height="608" viewBox="0 0 655 608" xmlns="http://www.w3.org/2000/svg" xmlns:xlink="http://www.w3.org/1999/xlink"><view id="btn01" viewBox="256 479.15 128 128"/><svg width="128" height="128" viewBox="-4 -4 128 128" x="256" y="479.15" xmlns="http://www.w3.org/2000/svg"><path d="M115.603 13.19l-8.786-8.793a14.959 14.959 0 00-10.612-4.4 14.959 14.959 0 00-10.611 4.4l-17.451 17.46L60 30.001 3.009 86.983.035 113.752a5.62 5.62 0 005.571 6.249c.223 0 .42-.01.635-.026l26.751-2.957 57.009-57.017 8.151-8.135 17.452-17.46a14.993 14.993 0 00-.001-21.216zm-87.771 93.077l-15.84 1.749 1.766-15.865 54.2-54.2 7.268-7.269 14.1 14.1-7.277 7.269zm79.808-79.825l-10.362 10.38-14.1-14.091L93.559 12.35a3.733 3.733 0 012.648-1.1 3.735 3.735 0 012.649 1.1l8.785 8.794a3.725 3.725 0 01-.001 5.298z" fill="#4a506b"/></svg><view id="btn02" viewBox="512 256 143 128"/><svg width="143" height="128" viewBox="-4 -4 143 128" x="512" y="256" xmlns="http://www.w3.org/2000/svg"><path d="M105 56.675a2.817 2.817 0 00-4.809-1.984l-5.622 5.622a2.815 2.815 0 00-.822 1.984v45.046a1.4 1.4 0 01-1.4 1.4H12.656a1.411 1.411 0 01-1.413-1.4V27.654a1.411 1.411 0 011.413-1.4h72.646a3.265 3.265 0 001.994-.821l5.622-5.631a2.812 2.812 0 00-1.994-4.8h-79.68A11.253 11.253 0 00.001 26.254v82.5a11.247 11.247 0 0011.243 11.252h82.5a11.249 11.249 0 0011.252-11.252zM132.185-.002h-31.874a2.812 2.812 0 00-1.984 4.8l11.3 11.3-63.812 63.794a2.83 2.83 0 000 3.979l5.317 5.308a2.8 2.8 0 003.969 0l63.794-63.8 11.3 11.3a2.817 2.817 0 004.809-1.984V2.822A2.821 2.821 0 00132.186 0z" fill="#4a506b"/></svg><view id="btn03" viewBox="0 0 128 208.01"/><svg width="128" height="208.01" viewBox="-4 -4 128 208.01" xmlns="http://www.w3.org/2000/svg"><path d="M0 20.026v159.963c0 17.763 21.563 26.73 34.15 14.142l80-79.986a20.024 20.024 0 000-28.281l-80-79.988C21.58-6.685 0 2.222 0 20.026zm100 79.978l-80 80V19.998z" fill="#4a506b"/></svg><view id="btn04" viewBox="384 0 128 143.14"/><svg width="128" height="143.14" viewBox="-4 -4 128 143.14" x="384" xmlns="http://www.w3.org/2000/svg"><path d="M60 105.227l-45.047-46.1 10.73-10.562 26.75 27.453V.002h15.133v76.2l26.746-27.453 10.73 10.563zM0 120.18v14.961h120V120.18z" fill="#4a506b"/></svg><view id="btn05" viewBox="128 479.15 128 128"/><svg width="128" height="128" viewBox="-4 -4 128 128" x="128" y="479.15" xmlns="http://www.w3.org/2000/svg"><path d="M115.603 13.19l-8.786-8.793a14.959 14.959 0 00-10.612-4.4 14.959 14.959 0 00-10.611 4.4l-17.451 17.46L60 30.001 3.009 86.983.035 113.752a5.62 5.62 0 005.571 6.249c.223 0 .42-.01.635-.026l26.751-2.957 57.009-57.017 8.151-8.136 17.452-17.46a14.992 14.992 0 00-.001-21.215zm-87.771 93.077l-15.84 1.749 1.766-15.866 54.2-54.2 7.268-7.27 14.1 14.1-7.277 7.269zm79.808-79.825L97.278 36.821l-14.1-14.091 10.381-10.38a3.733 3.733 0 012.648-1.1 3.735 3.735 0 012.649 1.1l8.785 8.794a3.725 3.725 0 01-.001 5.298z" fill="#fff"/></svg><view id="btn06" viewBox="512 0 143 128"/><svg width="143" height="128" viewBox="-4 -4 143 128" x="512" xmlns="http://www.w3.org/2000/svg"><path d="M105 56.675a2.817 2.817 0 00-4.809-1.984l-5.622 5.622a2.813 2.813 0 00-.822 1.984v45.046a1.4 1.4 0 01-1.4 1.4H12.656a1.41 1.41 0 01-1.413-1.4V27.654a1.411 1.411 0 011.413-1.4h72.646a3.265 3.265 0 001.994-.821l5.622-5.631a2.812 2.812 0 00-1.994-4.8h-79.68A11.253 11.253 0 00.001 26.254v82.5a11.248 11.248 0 0011.243 11.253h82.5a11.249 11.249 0 0011.252-11.253zM132.185-.002h-31.874a2.812 2.812 0 00-1.984 4.8l11.3 11.3-63.812 63.794a2.83 2.83 0 000 3.979l5.317 5.308a2.8 2.8 0 003.969 0l63.794-63.8 11.3 11.3a2.817 2.817 0 004.809-1.984V2.821A2.82 2.82 0 00132.186 0z" fill="#fff"/></svg><view id="btn07" viewBox="128 0 128 208.01"/><svg width="128" height="208.01" viewBox="-4 -4 128 208.01" x="128" xmlns="http://www.w3.org/2000/svg"><path d="M0 20.026v159.963c0 17.763 21.563 26.73 34.15 14.142l80-79.986a20.024 20.024 0 000-28.281l-80-79.988C21.58-6.685 0 2.222 0 20.026zm100 79.978l-80 80V19.998z" fill="#fff"/></svg><view id="btn08" viewBox="384 143.14 128 143.14"/><svg width="128" height="143.14" viewBox="-4 -4 128 143.14" x="384" y="143.14" xmlns="http://www.w3.org/2000/svg"><path d="M60 105.225l-45.045-46.1 10.731-10.562 26.746 27.454V.004h15.135v76.193l26.745-27.455 10.732 10.563zM0 120.18v14.955h120V120.18z" fill="#fff"/></svg><view id="btn09" viewBox="163.84 208.01 143 128"/><svg width="143" height="128" viewBox="-4 -4 143 128" x="163.84" y="208.01" xmlns="http://www.w3.org/2000/svg"><path d="M105 56.675a2.817 2.817 0 00-4.809-1.984l-5.622 5.622a2.815 2.815 0 00-.821 1.984v45.046a1.4 1.4 0 01-1.4 1.4H12.656a1.411 1.411 0 01-1.413-1.4V27.654a1.411 1.411 0 011.413-1.4h72.646a3.264 3.264 0 001.994-.821l5.622-5.631a2.812 2.812 0 00-1.994-4.8H11.243A11.253 11.253 0 000 26.254v82.5a11.247 11.247 0 0011.243 11.252h82.5a11.249 11.249 0 0011.252-11.252zM132.185-.002h-31.873a2.812 2.812 0 00-1.984 4.8l11.3 11.3-63.812 63.794a2.831 2.831 0 000 3.979l5.317 5.308a2.8 2.8 0 003.969 0l63.794-63.8 11.3 11.3a2.817 2.817 0 004.809-1.984V2.821A2.819 2.819 0 00132.186 0z" fill="#636363"/></svg><view id="btn10" viewBox="0 336.01 128 143.14"/><svg width="128" height="143.14" viewBox="-4 -4 128 143.14" y="336.01" xmlns="http://www.w3.org/2000/svg"><path d="M60 105.226l-45.045-46.1 10.732-10.563 26.745 27.455V.004h15.135v76.193l26.746-27.454 10.731 10.563zM0 120.18v14.955h120V120.18z" fill="#636363"/></svg><view id="btn11" viewBox="0 479.15 128 128"/><svg width="128" height="128" viewBox="-4 -4 128 128" y="479.15" xmlns="http://www.w3.org/2000/svg"><path d="M115.609 13.191l-8.794-8.794a14.955 14.955 0 00-10.6-4.4 14.946 14.946 0 00-10.611 4.4l-17.451 17.46L60.002 30 3.017 86.978.034 113.746a5.627 5.627 0 005.58 6.249 5.3 5.3 0 00.634-.034l26.751-2.948 57-57.016 8.16-8.134 17.451-17.468a15 15 0 00-.001-21.204zm-87.778 93.075L12 108.015l1.766-15.865 54.188-54.2 7.277-7.269 14.094 14.097-7.269 7.277zm79.816-79.824l-10.371 10.38-14.1-14.091 10.38-10.38a3.726 3.726 0 012.657-1.1 3.721 3.721 0 012.648 1.1l8.786 8.794a3.725 3.725 0 010 5.297z" fill="#009fe1"/></svg><view id="btn12" viewBox="512 128 143 128"/><svg width="143" height="128" viewBox="-4 -4 143 128" x="512" y="128" xmlns="http://www.w3.org/2000/svg"><path d="M105 56.676a2.809 2.809 0 00-4.8-1.984l-5.631 5.622a2.856 2.856 0 00-.821 1.985v45.046a1.4 1.4 0 01-1.4 1.4H12.655a1.4 1.4 0 01-1.4-1.4v-79.69a1.4 1.4 0 011.4-1.4h72.646a3.3 3.3 0 001.994-.821l5.622-5.631a2.809 2.809 0 00-1.984-4.8h-79.68A11.255 11.255 0 000 26.255v82.5a11.255 11.255 0 0011.252 11.252h82.5a11.255 11.255 0 0011.252-11.252zM132.185-.001h-31.874a2.813 2.813 0 00-1.985 4.8l11.3 11.3-63.8 63.794a2.83 2.83 0 000 3.978l5.308 5.308a2.813 2.813 0 003.978 0l63.794-63.8 11.3 11.3a2.812 2.812 0 004.8-1.984V2.812A2.813 2.813 0 00132.185 0z" fill="#009fe1"/></svg><view id="btn13" viewBox="256 0 128 208.01"/><svg width="128" height="208.01" viewBox="-4 -4 128 208.01" x="256" xmlns="http://www.w3.org/2000/svg"><path d="M0 20.026v159.963c0 17.763 21.563 26.73 34.15 14.142l80-79.986a20.024 20.024 0 000-28.281l-80-79.988C21.58-6.685 0 2.222 0 20.026zm100 79.978l-80 80V19.998z" fill="#009fe1"/></svg><view id="btn14" viewBox="128 336.01 128 143.14"/><svg width="128" height="143.14" viewBox="-4 -4 128 143.14" x="128" y="336.01" xmlns="http://www.w3.org/2000/svg"><path d="M59.999 105.23l-45.045-46.1 10.732-10.563 26.748 27.447V0H67.57v76.183l26.746-27.444 10.731 10.552zm-60 14.955v14.955h120v-14.955z" fill="#009fe1"/></svg><view id="btn15" viewBox="0 208.01 163.84 128"/><svg width="163.84" height="128" viewBox="-4 -4 163.84 128" y="208.01" xmlns="http://www.w3.org/2000/svg"><path data-name="패스 91" d="M139.215 1.202l-89.651 89.64-32.94-32.927a4.074 4.074 0 00-5.779 0l-9.652 9.63a4.107 4.107 0 000 5.792l45.479 45.469a4.094 4.094 0 005.78 0L154.634 16.624a4.088 4.088 0 000-5.792l-9.631-9.63a4.087 4.087 0 00-5.788 0z" fill="#fff"/></svg><view id="btn16" viewBox="256 336.01 143 128"/><svg width="143" height="128" viewBox="-4 -4 143 128" x="256" y="336.01" xmlns="http://www.w3.org/2000/svg"><path d="M105 56.675a2.817 2.817 0 00-4.809-1.984l-5.622 5.622a2.815 2.815 0 00-.822 1.984v45.046a1.4 1.4 0 01-1.4 1.4H12.656a1.411 1.411 0 01-1.413-1.4V27.654a1.411 1.411 0 011.413-1.4h72.646a3.265 3.265 0 001.994-.821l5.622-5.631a2.812 2.812 0 00-1.994-4.8h-79.68A11.253 11.253 0 00.001 26.254v82.5a11.247 11.247 0 0011.243 11.252h82.5a11.249 11.249 0 0011.252-11.252zM132.185-.002h-31.874a2.812 2.812 0 00-1.984 4.8l11.3 11.3-63.812 63.794a2.83 2.83 0 000 3.979l5.317 5.308a2.8 2.8 0 003.969 0l63.794-63.8 11.3 11.3a2.817 2.817 0 004.809-1.984V2.822A2.821 2.821 0 00132.186 0z" fill="#535da1" /></svg></svg>