<svg xmlns="http://www.w3.org/2000/svg" viewBox="0 0 193 50" fill="rgb(255,255,255)"><g><path class="cls-1" d="M22.51,32.14v-.55H21.05v-.48h1.3V29.58H20.3v.56h1.44v.43H20.16v.49h.26v1.08Zm.87-6.21v.48h.5V29.3h.63V28h.92v-.55h-.92v-1.5ZM19.63,27H20v2h2.86v-2.5H19.63Zm1,.07h1.58v1.39H20.65Zm2,3.08h1.26v2.08h.63V29.58H22.62ZM26,29.77h5.43v-.55H26Zm2.72-1.11a2.33,2.33,0,0,0,1.24-.32,1,1,0,0,0,.52-1,1.08,1.08,0,0,0-.52-1,2.25,2.25,0,0,0-1.24-.33,2.23,2.23,0,0,0-1.24.33,1.08,1.08,0,0,0-.52,1,1,1,0,0,0,.52,1A2.31,2.31,0,0,0,28.68,28.66Zm-.78-1.91a1.55,1.55,0,0,1,.78-.19,1.72,1.72,0,0,1,.78.18.65.65,0,0,1,.35.62.67.67,0,0,1-.35.62,1.61,1.61,0,0,1-.78.19A1.66,1.66,0,0,1,27.9,28a.63.63,0,0,1-.34-.61A.67.67,0,0,1,27.9,26.75Zm-.45,3.52h-1v.48h.35V32.1h4v-.55H27.45ZM33.32,26v.57h-1.1v.55H35v-.55H34V26ZM35.11,26v.48h.42v3h.64v-1h.56v1.25h.64V25.93h-1v.48h.39v1.47h-.56V26Zm-.59,3.38a1,1,0,0,0,.41-.85,1,1,0,0,0-.41-.88,1.63,1.63,0,0,0-.9-.27,1.52,1.52,0,0,0-.88.29.94.94,0,0,0-.42.85,1,1,0,0,0,.41.86,1.54,1.54,0,0,0,.89.28A1.57,1.57,0,0,0,34.52,29.33ZM33,28.46a.56.56,0,0,1,.2-.44.69.69,0,0,1,.47-.16.74.74,0,0,1,.49.16.56.56,0,0,1,.19.46.54.54,0,0,1-.19.43.69.69,0,0,1-.49.18.68.68,0,0,1-.48-.18A.62.62,0,0,1,33,28.46ZM34,31a1.05,1.05,0,0,0,.48.91,2,2,0,0,0,1.17.33,2.07,2.07,0,0,0,1.18-.33,1.1,1.1,0,0,0,0-1.83,2,2,0,0,0-1.18-.34,2,2,0,0,0-1.17.34A1.06,1.06,0,0,0,34,31Zm1-.57a1.36,1.36,0,0,1,.69-.17,1.41,1.41,0,0,1,.69.17.59.59,0,0,1,.33.57.58.58,0,0,1-.33.56,1.66,1.66,0,0,1-.69.16,1.47,1.47,0,0,1-.69-.17.57.57,0,0,1-.33-.55A.59.59,0,0,1,35,30.41Zm8.26,1.8V30.09H39.08v.55h3.54v1.57Zm-4.78-3.15v.55h5.44v-.55h-2.4V28.5h1.65V26.15h-.64v.75H40v-.71H39v.41h.36v1.9h1.55v.56ZM40,28v-.53h2.57V28ZM28.08,34H25.22v1.16h1.25V42.6h1.61V40.39H30.4V39.06H28.08V37.51H30.4V36.19H28.08Zm-1.47,9.47a5.05,5.05,0,0,0-2.88-.8,5.05,5.05,0,0,0-2.88.8,2.92,2.92,0,0,0,0,4.87,5,5,0,0,0,2.86.78,5.12,5.12,0,0,0,2.88-.78,2.88,2.88,0,0,0,0-4.87Zm-1.15,3.88a3.62,3.62,0,0,1-3.46,0,1.6,1.6,0,0,1-.8-1.44,1.68,1.68,0,0,1,.8-1.48,3.42,3.42,0,0,1,3.46,0,1.64,1.64,0,0,1,.81,1.46A1.61,1.61,0,0,1,25.46,47.31ZM23,41a3.06,3.06,0,0,0,1.25-2.54A3.13,3.13,0,0,0,23,35.92,4.52,4.52,0,0,0,20.1,35a4.43,4.43,0,0,0-2.86.93A3.14,3.14,0,0,0,16,38.49,3.07,3.07,0,0,0,17.24,41,4.42,4.42,0,0,0,20.1,42,4.52,4.52,0,0,0,23,41Zm-5.41-2.54a2,2,0,0,1,.75-1.58,2.67,2.67,0,0,1,1.77-.63,2.71,2.71,0,0,1,1.78.63,2,2,0,0,1,.75,1.58,2,2,0,0,1-.75,1.57,2.63,2.63,0,0,1-1.76.62,2.7,2.7,0,0,1-1.78-.62A2,2,0,0,1,17.57,38.49Zm27.11,5.26a6.42,6.42,0,0,0-5.79,0,2.62,2.62,0,0,0-1.42,2.35,2.55,2.55,0,0,0,1.44,2.31,5.62,5.62,0,0,0,2.87.69,5.68,5.68,0,0,0,2.88-.68,2.56,2.56,0,0,0,1.43-2.32A2.61,2.61,0,0,0,44.68,43.75Zm-2.9,4.12A3.76,3.76,0,0,1,40,47.5a1.51,1.51,0,0,1-.9-1.42A1.54,1.54,0,0,1,40,44.64a4.42,4.42,0,0,1,3.63,0,1.56,1.56,0,0,1,.9,1.44C44.49,47.28,43.58,47.87,41.78,47.87Zm1.5-12.76h1.26v2H42v1.18h2.51v.82H42v1.2h2.51V43h1.61V34H43.28Zm-.62,5.79h-2V36.66h1.45V35.34H33.49v1.32H35V40.9H33.25v1.35h9.41Zm-3.58,0h-2.5V36.66h2.5ZM63,28.2c.08-.32.3-.64.27-.88s-.66-.37-.7-.6S63,26.19,63,26s-.54-.36-.58-.59.23-.51.18-.73-.07-.45-.13-.67,0-.47-.07-.69,0-.47-.1-.69-.42-.34-.49-.56-.09-.44-.16-.65-.18-.42-.26-.63-.35-.35-.43-.56-.13-.42-.21-.63-.09-.47-.19-.68.08-.56,0-.77-.32-.37-.43-.58-.18-.44-.29-.65-.41-.31-.52-.52.1-.6,0-.8-.57-.2-.7-.4,0-.58-.08-.77-.41-.3-.54-.49-.4-.29-.54-.48-.31-.35-.45-.53-.34-.32-.48-.5-.13-.49-.27-.67-.14-.5-.29-.67-.59-.1-.75-.27-.37-.28-.52-.45-.06-.59-.22-.76S54.16,9.15,54,9s-.42-.23-.59-.39-.33-.29-.5-.43-.41-.23-.58-.38a.83.83,0,0,0-.46-.12.1.1,0,0,0,0,0,.52.52,0,0,0-.24-.09c-.12-.15-.16-.4-.32-.52s-.15-.52-.32-.65-.63.08-.82-.06-.37-.23-.54-.36-.23-.43-.42-.55-.29-.34-.48-.46-.46-.09-.65-.2-.19-.53-.38-.64-.48.12-.69.14a.84.84,0,0,0-.25-.3.63.63,0,0,0-.34,0l-.08-.06c-.19-.1-.4-.15-.59-.24a.83.83,0,0,0-.27-.26.29.29,0,0,0-.13-.05l-.15-.09c-.2-.09-.36-.25-.56-.34s-.37-.25-.57-.33-.55.19-.75.11-.38-.23-.58-.31a.44.44,0,0,1-.18-.12c-.07-.17-.13-.33-.23-.37a.27.27,0,0,0-.21,0c-.19-.05-.39,0-.58-.08s-.36-.3-.57-.36l-.64-.16c-.22-.06-.49.11-.7.06S39.23.92,39,.87a.87.87,0,0,0-.41.07.85.85,0,0,0-.29-.17c-.22-.05-.43-.19-.65-.23s-.49.13-.72.09a.24.24,0,0,0-.12,0c-.13-.14-.25-.36-.4-.38s-.45,0-.67,0a.4.4,0,0,0-.24.09l-.62,0c-.23,0-.44-.25-.67-.27a.64.64,0,0,0-.36.16h-.08a1.32,1.32,0,0,0-.47.13C33.14.2,33,0,32.8,0a.35.35,0,0,0-.17,0,.27.27,0,0,0-.12,0c-.21,0-.41.08-.62.08a1.07,1.07,0,0,0-.25,0l-.26,0C31.18.1,31,0,30.76,0a.27.27,0,0,0-.12,0,.32.32,0,0,0-.17,0c-.17,0-.34.17-.5.26A1.45,1.45,0,0,0,29.5.16h-.09A.64.64,0,0,0,29.06,0c-.23,0-.45.24-.68.27s-.41,0-.61,0a.45.45,0,0,0-.25-.09c-.22,0-.45,0-.67,0s-.27.24-.4.38a.24.24,0,0,0-.12,0c-.22,0-.49-.14-.71-.09s-.44.18-.66.23a.91.91,0,0,0-.28.17.91.91,0,0,0-.42-.07c-.21.05-.36.39-.57.45s-.48-.12-.69-.06-.44.1-.64.16-.37.29-.58.36-.39,0-.58.08a.25.25,0,0,0-.2,0c-.11,0-.17.2-.23.37a.52.52,0,0,1-.18.12c-.21.08-.38.23-.58.31s-.55-.2-.75-.11-.38.24-.57.33-.37.25-.57.34L18,3.28a.31.31,0,0,0-.12.05.83.83,0,0,0-.27.26c-.2.09-.41.14-.6.24l-.08.06a.59.59,0,0,0-.33,0,.75.75,0,0,0-.25.3c-.22,0-.54-.23-.7-.14s-.19.52-.38.64-.46.08-.65.2-.3.34-.48.46-.23.43-.41.55-.37.23-.54.36-.64-.08-.82.06-.16.51-.33.65-.2.37-.32.52a.57.57,0,0,0-.24.09l0,0c-.16,0-.35,0-.45.12s-.42.22-.59.38-.34.28-.5.43-.42.23-.59.39-.24.42-.4.58-.05.59-.21.76-.37.28-.53.45-.6.09-.75.27-.13.49-.28.67-.13.48-.28.67-.34.31-.48.5-.32.34-.45.53-.4.29-.54.48-.41.29-.53.49,0,.57-.09.77-.58.2-.7.4.1.6,0,.8-.42.31-.53.52-.19.43-.29.65-.33.36-.43.58.08.55,0,.77-.09.46-.18.68-.14.43-.22.63-.35.35-.43.56-.18.41-.26.63-.09.44-.16.65-.42.35-.48.56,0,.47-.1.69,0,.46-.08.69-.08.44-.13.67.23.51.19.73-.55.37-.59.59.41.53.38.76-.67.37-.7.6.2.56.27.88a.76.76,0,0,0,0,.37,7.64,7.64,0,0,0-.21,1.49,1.57,1.57,0,0,1,.42,0c0,.34.22.84.2,1.16a.49.49,0,0,1,0,.21c.17.06.29.21.45.27s.46,0,.68,0,.26.15.45.17.35-.11.52-.09.24.12.31.12a13.26,13.26,0,0,0,1.41,0c.26,0,.49-.1.77-.08a7.64,7.64,0,0,0,1,0c.46-.05.9,0,1.35-.05.17,0,.22.06.42,0s.23-.2.47-.18.4.17.57.2.46.11.65.14a4.25,4.25,0,0,0,1.59,0c.14,0,.24-.16.38-.17.32,0,.66.15,1,.15a8.46,8.46,0,0,0,.87-.05,2.65,2.65,0,0,0,1.8-1.16c.42-.73.14-1.71.58-2.46a10.31,10.31,0,0,0,.71-2.16c.07-.21.16-.42.24-.62s.47-.28.56-.48.09-.45.19-.65,0-.53.06-.72.42-.26.54-.45,0-.51.14-.69.12-.47.25-.65.52-.17.65-.34.37-.26.52-.42.28-.36.44-.53.39-.22.54-.38.09-.58.26-.73.58,0,.75-.13.3-.32.47-.45.15-.53.32-.66.62.09.81,0,.21-.48.4-.59a1.5,1.5,0,0,0,.27-.24.59.59,0,0,0,.14-.06.3.3,0,0,0,.14-.15c.18-.09.39-.14.58-.23s.33-.28.51-.37a1.33,1.33,0,0,1,.28,0,1.1,1.1,0,0,0,.47,0c.21-.08.36-.3.57-.37s.49.14.7.08.37-.34.58-.39a1.28,1.28,0,0,0,.34-.19.59.59,0,0,0,.23,0c.23,0,.44-.2.67-.23a.76.76,0,0,1,.34.08c.14.13.29.29.41.28a.59.59,0,0,0,.28-.15,1.27,1.27,0,0,0,.38.07c.18,0,.35-.34.53-.5h.07a2.21,2.21,0,0,0,.35,0,2,2,0,0,0,.35,0h.06c.18.16.35.49.53.5a1.22,1.22,0,0,0,.38-.07.59.59,0,0,0,.28.15c.13,0,.27-.15.42-.28a.71.71,0,0,1,.34-.08c.23,0,.44.19.66.23a.59.59,0,0,0,.23,0,1.28,1.28,0,0,0,.34.19c.22.05.37.32.58.39s.5-.15.71-.08.36.29.56.37a1.1,1.1,0,0,0,.47,0l.29,0c.18.09.32.28.51.37s.39.14.58.23a.28.28,0,0,0,.13.15l.14.06a1.5,1.5,0,0,0,.27.24c.19.11.22.47.4.59s.62-.1.81,0,.15.53.33.66.3.31.47.45.58,0,.74.13.09.57.26.73.39.22.54.38.3.35.45.53.37.25.51.42.52.17.65.34.13.46.25.65,0,.5.15.69.43.26.54.45,0,.53,0,.72.09.44.19.65.48.27.56.48.17.41.25.62a10.28,10.28,0,0,0,.7,2.16,4.75,4.75,0,0,1,.38,1.95,3.05,3.05,0,0,0,.25,1c.26.51.41.4.9.5.18,0,.27.15.48.17s.36-.11.55-.09.26.12.32.12c.43,0,1,0,1.5,0,.29,0,.53-.1.83-.08a8.69,8.69,0,0,0,1,0c.49-.05,1,0,1.44-.05.18,0,.23.06.44,0s.25-.2.5-.18.43.17.61.2.49.11.69.14a4.8,4.8,0,0,0,1.69,0c.15,0,.26-.16.41-.17s.55.19.85.17a3.44,3.44,0,0,1,1.15.12c.44.11,1-.35,1.22-.7a4.58,4.58,0,0,0,.23-1.3,1.57,1.57,0,0,1,.42,0A6.94,6.94,0,0,0,63,28.57.65.65,0,0,0,63,28.2ZM8.91,16.31a1.46,1.46,0,1,1-1.46,1.46A1.47,1.47,0,0,1,8.91,16.31ZM8.42,26.92A2.55,2.55,0,0,0,7.54,29l-.8-.38a2.47,2.47,0,0,0,1-2,6,6,0,0,0-1.71-3.77,5.16,5.16,0,0,1,3.77.26,2.24,2.24,0,0,1,.27.14l-.93,2,1.29-1.76a4.67,4.67,0,0,1,2,2.38A6.11,6.11,0,0,0,8.42,26.92Zm5.83-4.82a.66.66,0,1,1,.66-.65A.66.66,0,0,1,14.25,22.1Zm4.28-8.91c-.22,0-1-.15-1.1-.15.13.1.5.32.75.52a2.69,2.69,0,0,1,.78.89c.3.57,0,1.3-.67,1.15-.84-.18-1.25-1.84-1.26-2.3a4.72,4.72,0,0,1-.65,2,.89.89,0,0,1-1.09.26c-.4-.27-.17-.95,0-1.2a7.09,7.09,0,0,1,1.28-1.27,4.61,4.61,0,0,1-1.74.11c-.34-.05-1.07-.38-.79-.91.15-.3.83-.39,1.15-.35a2.75,2.75,0,0,1,1.43.66c-.11-.21-.9-2.64.44-2.58,1,0,.59,1.78.22,2.51.32-.18,1.76-1,2.39-.37C20.1,12.6,19.81,13.26,18.53,13.19Zm3.31-6.41A1.06,1.06,0,1,1,22.9,5.72,1.06,1.06,0,0,1,21.84,6.78ZM37.49,5a8.85,8.85,0,0,1-3.13,1.29.52.52,0,0,0-.37.32,10.79,10.79,0,0,1-4.78,5.85c-.28.15-.39,0-.39,0s.06-.32.06-.32A8.92,8.92,0,0,0,31.09,9c.13-.38-.22-.12-.22-.12a10.17,10.17,0,0,1-4.2,1.75c-.24,0-.26-.15-.26-.15-.05-.24.22-.32.22-.32C29.86,8.83,31.12,7,31.44,6.39c.12-.25-.16-.35-.34-.43a3.42,3.42,0,0,1-.4-.17,8.64,8.64,0,0,1-1.24-.74,8,8,0,0,1-.91-.75c-.23-.22-.11-.35-.11-.35.13-.18.39,0,.39,0A12.57,12.57,0,0,0,32.1,5.22a2.91,2.91,0,0,0,.33,0,1.07,1.07,0,0,1-.13-.63c.05-.49.39-.87.76-.83s.63.46.58,1a1,1,0,0,1-.24.6h.34a11.25,11.25,0,0,0,3.54-.72s.2-.09.28,0S37.67,4.81,37.49,5Zm3.08,9.57a.64.64,0,1,1,.64-.64A.64.64,0,0,1,40.57,14.53Zm2-8.64-.62.24a.47.47,0,0,0-.27.3l-.15.65c0,.12-.12.14-.2,0l-.42-.51a.46.46,0,0,0-.38-.16l-.66,0c-.13,0-.18-.07-.11-.18l.37-.56a.51.51,0,0,0,0-.4l-.25-.62c0-.12,0-.19.13-.15l.65.17a.49.49,0,0,0,.39-.09l.51-.43c.1-.09.18,0,.19.08l0,.67a.51.51,0,0,0,.21.34l.57.35C42.68,5.75,42.67,5.84,42.55,5.89Zm5.53,8.2c-1-.18-1,1.67-.35,2.41-1.57.11-2.8-1.89-2.83-3.23-1.14-.38-1.22-1-1.25-1s.48-.36,1.58-.12c.62-1.54,3.1-2.2,4.35-2-.87.55-2.3,2.63-1.4,3h1.87l-.48,1.49Zm1.15,8.15a.93.93,0,1,1,.93-.93A.93.93,0,0,1,49.23,22.24Zm5.61-5.81a1.34,1.34,0,1,1-1.34,1.34A1.34,1.34,0,0,1,54.84,16.43ZM57,25a6,6,0,0,1-1.15,2.55,3.56,3.56,0,0,1-3,1.56s-.38,0-.32-.36c.63-3.12,4.47-4.54,2.94-4a6.28,6.28,0,0,0-3.2,3.55c-.08.18-.25.06-.3-.05a2.8,2.8,0,0,1,.63-3.14c1.9-2.37,5.88-1.82,5.88-1.82A3.27,3.27,0,0,0,57,25Z"/><path class="cls-1" d="M84.79,27.55a6.8,6.8,0,0,0,3.26-1.36,8,8,0,0,0,2.34-3,2.74,2.74,0,0,1,.86,1.58,6.16,6.16,0,0,1,0,2.37h5a9.71,9.71,0,0,0-.94-5.83,5.5,5.5,0,0,0-3.77-2.52q.06-.49.09-1.05c0-.36,0-.74,0-1.13v-.84a2.35,2.35,0,0,0-.79-2A3,3,0,0,0,89,13.13a2.67,2.67,0,0,0-1.8.63,2.42,2.42,0,0,0-.74,2v.84a10.76,10.76,0,0,1-.76,4.48,4.06,4.06,0,0,1-2.21,2.16,2.11,2.11,0,0,0-1.4,2.63A1.85,1.85,0,0,0,83,27.21,2.7,2.7,0,0,0,84.79,27.55Zm21.86,2.33a5.25,5.25,0,0,0-1.8-1.12,7.09,7.09,0,0,0-2.5-.4h-13a7,7,0,0,0-2.54.42A5.22,5.22,0,0,0,85,29.91,4.41,4.41,0,0,0,84,31.61a6.51,6.51,0,0,0,0,4.21A4.37,4.37,0,0,0,85,37.49a5.16,5.16,0,0,0,1.79,1.1,7.23,7.23,0,0,0,2.54.41h13a7.33,7.33,0,0,0,2.5-.39,5,5,0,0,0,1.8-1.09,4.56,4.56,0,0,0,1.07-1.69,6.29,6.29,0,0,0,0-4.25A4.77,4.77,0,0,0,106.65,29.88Zm-4.55,4.75a1.42,1.42,0,0,1-1.24.45h-10a1.39,1.39,0,0,1-1.23-.45,1.59,1.59,0,0,1-.31-.92,1.47,1.47,0,0,1,.31-.9,1.44,1.44,0,0,1,1.23-.42h10a1.48,1.48,0,0,1,1.24.42,1.52,1.52,0,0,1,.3.9A1.65,1.65,0,0,1,102.1,34.63Zm-.34-12H103v4.79H108V15a2.14,2.14,0,0,0-.76-1.78,2.75,2.75,0,0,0-3.43,0A2.19,2.19,0,0,0,103,15v3.39h-1.26V15a2.19,2.19,0,0,0-.74-1.78,2.64,2.64,0,0,0-1.7-.6,2.55,2.55,0,0,0-1.69.6A2.2,2.2,0,0,0,96.92,15V27.38h4.84Zm36.06-2.32a3.22,3.22,0,0,0-.11-.86,2.1,2.1,0,0,0-.36-.77,2.07,2.07,0,0,0-.67-.56,2.26,2.26,0,0,0-1.07-.22h-.87V15.39a2.53,2.53,0,0,0-.84-2.05,2.87,2.87,0,0,0-1.93-.72,2.93,2.93,0,0,0-1.94.7,2.54,2.54,0,0,0-.83,2.07V27.86h5.54V22.67h.87a2.4,2.4,0,0,0,1-.21,1.75,1.75,0,0,0,.69-.56,2.14,2.14,0,0,0,.36-.78A3.15,3.15,0,0,0,137.82,20.27Zm-11.73,7.39a2.19,2.19,0,0,0,1.72-.58,1.92,1.92,0,0,0,.52-1.35,1.79,1.79,0,0,0-.5-1.28,2.41,2.41,0,0,0-1.74-.52h-4.53V22.79h.14a5.55,5.55,0,0,0,3.82-1.11,3.8,3.8,0,0,0,1.22-2.95,2.36,2.36,0,0,0-.17-.87,1.87,1.87,0,0,0,.75-3.12,2.18,2.18,0,0,0-1.56-.52h-4.09a2,2,0,0,0-.9-1.44,3.3,3.3,0,0,0-1.82-.47,3.39,3.39,0,0,0-1.85.47,2,2,0,0,0-.89,1.44h-4.09a2.2,2.2,0,0,0-1.57.52,2,2,0,0,0-.21,2.5,1.93,1.93,0,0,0,1,.65,2.73,2.73,0,0,0-.14.84,3.77,3.77,0,0,0,1.22,2.95,5.53,5.53,0,0,0,3.82,1.11h.14v1.14h-4.12a2.37,2.37,0,0,0-1.73.52,1.76,1.76,0,0,0-.51,1.28,1.92,1.92,0,0,0,.52,1.35,2.21,2.21,0,0,0,1.72.58Zm-10-9a.93.93,0,0,1,.29-.71,1.37,1.37,0,0,1,.94-.27h3.3a1.35,1.35,0,0,1,.94.27.9.9,0,0,1,.3.71,1,1,0,0,1-.3.7,1.22,1.22,0,0,1-.94.31h-3.3a1.24,1.24,0,0,1-.94-.31A1,1,0,0,1,116.07,18.64Zm18,17.25h-16c-.33,0-.5-.15-.5-.45a.56.56,0,0,1,.11-.32.47.47,0,0,1,.39-.15h16.86V31a2.48,2.48,0,0,0-.64-1.85,3.49,3.49,0,0,0-2.38-.62H113.35a1.32,1.32,0,0,0-1.15.48,1.74,1.74,0,0,0-.33,1,1.5,1.5,0,0,0,.38,1,1.33,1.33,0,0,0,1.1.46h15.32a.61.61,0,0,1,.4.09.41.41,0,0,1,.1.33v.51H115.06a3.73,3.73,0,0,0-2.62.8,2.88,2.88,0,0,0-.85,2.22v.17a3.35,3.35,0,0,0,.87,2.35,3.31,3.31,0,0,0,2.6.95h19a1.2,1.2,0,0,0,1.12-.5,1.79,1.79,0,0,0,0-2A1.23,1.23,0,0,0,134.1,35.89Zm26.6-23.27a3,3,0,0,0-2,.7,2.55,2.55,0,0,0-.84,2.07V38.91h5.6V15.39a2.55,2.55,0,0,0-.84-2.07A3,3,0,0,0,160.7,12.62ZM149.25,21.5v-3H153a2.44,2.44,0,0,0,1.06-.21,2,2,0,0,0,.73-.54,2.2,2.2,0,0,0,.41-.77,3.24,3.24,0,0,0,.12-.86,3.17,3.17,0,0,0-.12-.85,2.43,2.43,0,0,0-.39-.77,2.17,2.17,0,0,0-.72-.56,2.41,2.41,0,0,0-1.09-.22H140a2.45,2.45,0,0,0-1.1.22,2.63,2.63,0,0,0-.74.56,2.14,2.14,0,0,0-.42.77,3.17,3.17,0,0,0-.12.85,2.62,2.62,0,0,0,.14.86,2.22,2.22,0,0,0,.42.77,2.1,2.1,0,0,0,.72.54,2.6,2.6,0,0,0,1.1.21h3.75v2.89a24.84,24.84,0,0,1-.31,4.18,13.6,13.6,0,0,1-.95,3.28,9.79,9.79,0,0,1-1.61,2.52,10.93,10.93,0,0,1-2.31,1.92,2.19,2.19,0,0,0-1,1.4,2.41,2.41,0,0,0,.2,1.65,1.66,1.66,0,0,0,.6.69,3.31,3.31,0,0,0,.9.39,3.7,3.7,0,0,0,1,.11,2.59,2.59,0,0,0,1-.21,11.25,11.25,0,0,0,3.86-2.73,13.74,13.74,0,0,0,2.72-4.49,4.89,4.89,0,0,1,1.89,2.67,11.59,11.59,0,0,1,.29,4.61h5.27a22.74,22.74,0,0,0-.28-5,11.47,11.47,0,0,0-1.21-3.51,7.23,7.23,0,0,0-2-2.34A10.42,10.42,0,0,0,149,25.11c.08-.56.13-1.14.17-1.74S149.25,22.15,149.25,21.5Zm42.88,13.76a2,2,0,0,0-.41-.73A2.19,2.19,0,0,0,191,34a2.78,2.78,0,0,0-1.1-.19H182V28.44h6.63a2.15,2.15,0,0,0,1-.21,2.1,2.1,0,0,0,.67-.54,2.2,2.2,0,0,0,.39-.76,2.63,2.63,0,0,0,.13-.81,2.53,2.53,0,0,0-.13-.8,2.26,2.26,0,0,0-.38-.74,2,2,0,0,0-.67-.56,2.09,2.09,0,0,0-1-.23H174a.89.89,0,0,1-.62-.16.9.9,0,0,1-.17-.62V19a.81.81,0,0,1,.17-.6.94.94,0,0,1,.62-.16H188.2a2.13,2.13,0,0,0,1-.21,2.1,2.1,0,0,0,.67-.54,2.17,2.17,0,0,0,.38-.76,3,3,0,0,0,0-1.62,2.53,2.53,0,0,0-.36-.76,2.11,2.11,0,0,0-.68-.56,2.08,2.08,0,0,0-1-.22H172a8.12,8.12,0,0,0-2.13.24,2.9,2.9,0,0,0-1.38.77,3.1,3.1,0,0,0-.76,1.37,7.51,7.51,0,0,0-.24,2V24a7.64,7.64,0,0,0,.24,2.07,3.06,3.06,0,0,0,.76,1.36,3,3,0,0,0,1.38.75,8.12,8.12,0,0,0,2.13.24h4.26v5.38h-7.9a2.73,2.73,0,0,0-1.09.19,2.23,2.23,0,0,0-.73.52,2.11,2.11,0,0,0-.41.73,2.92,2.92,0,0,0-.12.83,2.51,2.51,0,0,0,.54,1.57,2.19,2.19,0,0,0,1.81.7h21.5a2.18,2.18,0,0,0,1.81-.7,2.52,2.52,0,0,0,.55-1.57A2.93,2.93,0,0,0,192.13,35.26Z"/></g></svg>