<svg xmlns="http://www.w3.org/2000/svg" xmlns:xlink="http://www.w3.org/1999/xlink" width="172" height="61" viewBox="0 0 172 61">
  <defs>
    <linearGradient id="linear-gradient" x1="0.5" x2="0.5" y2="1" gradientUnits="objectBoundingBox">
      <stop offset="0.25" stop-color="#004830"/>
      <stop offset="0.334" stop-color="#12542f"/>
      <stop offset="0.503" stop-color="#42742d"/>
      <stop offset="0.739" stop-color="#8fa62a"/>
      <stop offset="0.95" stop-color="#d9d827"/>
    </linearGradient>
    <clipPath id="clip-path">
      <path id="사각형_2" data-name="사각형 2" d="M6.834,0H53.278a6.833,6.833,0,0,1,6.833,6.833V53.771A6.832,6.832,0,0,1,53.279,60.6H6.833A6.833,6.833,0,0,1,0,53.77V6.834A6.834,6.834,0,0,1,6.834,0Z" fill="url(#linear-gradient)"/>
    </clipPath>
  </defs>
  <g id="그룹_8" data-name="그룹 8" transform="translate(-220.38 -493.78)">
    <g id="그룹_3" data-name="그룹 3" transform="translate(231.577 493.78)">
      <path id="사각형_1" data-name="사각형 1" d="M6.834,0H53.278a6.833,6.833,0,0,1,6.833,6.833V53.771A6.832,6.832,0,0,1,53.279,60.6H6.833A6.833,6.833,0,0,1,0,53.77V6.834A6.834,6.834,0,0,1,6.834,0Z" fill="url(#linear-gradient)"/>
      <g id="그룹_2" data-name="그룹 2" clip-path="url(#clip-path)">
        <g id="그룹_1" data-name="그룹 1" transform="translate(-0.241 13.758)">
          <path id="패스_1" data-name="패스 1" d="M262.148,513.291a5.724,5.724,0,0,1,4.748-.172l-.677-2.281a7.721,7.721,0,0,0-5.182-1.481Z" transform="translate(-236.224 -509.292)" fill="#fff"/>
          <path id="패스_2" data-name="패스 2" d="M247.263,543.53c5.2-1.75,8.734-3.578,12.481-7.222a19.5,19.5,0,0,0,4.846-9.008c-2.048-1.308-4.846-.274-4.846-.274-2.863,7.7-11.8,10.933-11.8,10.933-6.818-2.338-8.119-7.356-8.119-7.356-2.45-.84-3.406.205-3.406.205,1.228,5.364,7.5,8.459,7.5,8.459-7.272,2.253-10.542,5.976-11.091,6.652v6.238a6.174,6.174,0,0,0,6.131,6.182h1.062C231.556,552.138,242.375,545.172,247.263,543.53Z" transform="translate(-232.833 -511.252)" fill="#fff"/>
        </g>
        <path id="패스_3" data-name="패스 3" d="M285.744,535.189c1.052-.8,2-2.171,1.611-2.463a.512.512,0,0,0-.682.122c.286-.405.632-2.346,1.02-3.083.618-1.2.986-1.452,1.252-1.339,1.178.5.333,3.248.333,3.248a2.249,2.249,0,0,0-.077,1.884,4.529,4.529,0,0,0,1.114-1.537c.543-1.1.032-1.324.674-.884s.906.5,1.06.254-.375-4.275-3.626-4.684a5.153,5.153,0,0,0-4.827,1.874c-.44.272.316-2.183-1.665,1.118a10.139,10.139,0,0,0-1.391,5.575C280.784,539.083,284.606,536.053,285.744,535.189Zm-20.551,18.695a14.48,14.48,0,0,0,5.138-6.459c1.949-5.14-4.859-3.48-6.865-3.036-1.853.413-3.915,1.633-3.577,2.252a.742.742,0,0,0,.966.255c-.613.36-2.223,2.69-3.167,3.421-1.522,1.192-2.154,1.307-2.438.995-1.245-1.371,1.494-4.456,1.494-4.456a3.212,3.212,0,0,0,1.218-2.42,6.453,6.453,0,0,0-2.369,1.341c-1.368,1.119-.833,1.713-1.41.75s-.887-1.21-1.235-.976-2.05,5.829,1.966,8.33,6.7.554,7.438.458S260.638,557.01,265.193,553.884Zm.284-12.19c1.292-.4,1.351,1.544,2.865.719,1.751-.951,2.349.5,3.441-.549s2.979-.5,2.69-2.086-3.243-4.135-3.562-4.639c0,0-2.174-1.793-4.718.745,0,0-2.939,2.583-3.041,4.2S264.183,542.095,265.477,541.694Zm5.244-4.383c.119-.038.469.717.788,1.69a4.211,4.211,0,0,1,.373,1.83c-.116.037-.472-.721-.79-1.692A4.145,4.145,0,0,1,270.721,537.311Zm-2.109,2.2c.133-1.015.351-1.822.487-1.807s.141.858,0,1.871-.351,1.82-.484,1.805S268.476,540.521,268.612,539.509Zm-2.591-.467c.455-.92.921-1.607,1.042-1.547s-.146.853-.6,1.771-.916,1.608-1.042,1.543S265.566,539.955,266.021,539.042Zm26.339,5.89c-.679-.094-1.677.194-2.87,2.078s-6.847,8.393-7.949,8.912a25.235,25.235,0,0,0,5.775-2.884c2.737-1.887,5.276-4.279,5.837-5.615S293.068,545.027,292.359,544.932Zm-44.136,4.152a1.777,1.777,0,1,0-1.86-1.911A1.888,1.888,0,0,0,248.223,549.083Zm26.951-12.267a1.975,1.975,0,1,0-2.065-2.125A2.1,2.1,0,0,0,275.175,536.817ZM280.8,556.8c-.593.477-1.729,1.322-2.021,1.535h1.485c.158-.138.731-.648.946-.849a3.52,3.52,0,0,0,.632-.759C282.1,556.266,281.481,556.252,280.8,556.8Zm-31.963-5.54a.756.756,0,0,0-.262.035c-.151.071-.38.393.272.667,1.087.454,2.781,1.175,2.655,2.345s-.65,3.2-2.4,1.8c-1.667-1.329.553-6.206-2.485-4.837a.883.883,0,0,0-.449-.757.9.9,0,0,0-1.04.188.573.573,0,0,0-.062.064.24.24,0,0,0-.01-.063.749.749,0,0,0-.378-.564.759.759,0,0,0-.833.1,1.04,1.04,0,0,0-1.119-.511,1.006,1.006,0,0,0-.212-.162,1.346,1.346,0,0,0-1.811.613,1.373,1.373,0,0,0,.371,1.882,1.225,1.225,0,0,0,.563.966,1.006,1.006,0,0,0,.521.141c.02,0,.04,0,.062,0l-.111.209-.015.029a.823.823,0,0,0,.289,1.125.733.733,0,0,0,.6.036c.022-.009.042-.021.064-.029a.511.511,0,0,0-.03.064.983.983,0,0,0,.341,1.285.859.859,0,0,0,.828-.033,4.876,4.876,0,0,0,2.142,2.479H250.8a3.867,3.867,0,0,0,1.166-1.389S254.5,551.662,248.836,551.265Zm43-10.209c.546-.96,2.591-4.54,1.158-5.915s-3.2-.409-3.955.481c-.815.962-3.616,6.124-4.572,7.7a34.416,34.416,0,0,1-4.844,6.19c-1.5,1.3-1.84-.345-1.156-1.447s3.614-5.914,3.409-7.908-3.137-1.376-4.3.069-3.154,7.21-6.412,11.622c-3.078,4.162-9.994,6.112-11.474,6.488h13.178C286,551.175,291.3,542.017,291.841,541.055ZM280.389,555.84c.274-.757-.613-.481-.956-.137a8.542,8.542,0,0,1-1.771,1.307,15.367,15.367,0,0,1-4.076,1.33h3.441a16.61,16.61,0,0,0,1.937-.976A3.663,3.663,0,0,0,280.389,555.84Zm8.663-2.337c-2.359,2.438-4.518,4.31-5.14,4.836h4.268c.958-.369,3.646-2.434,4.212-3.875S291.31,551.172,289.052,553.5Z" transform="translate(-233.992 -497.496)" fill="#fff" opacity="0.3"/>
      </g>
    </g>
    <path id="합치기_1" data-name="합치기 1" d="M16.175,0h-.069a4.206,4.206,0,0,0-4.22,3.277,4.444,4.444,0,0,0-5.352-.542A4.1,4.1,0,0,0,4.553,7.066a6.463,6.463,0,0,0-2.786.662A4.161,4.161,0,0,0,.425,12.869c1.588,2.82,5.249,2.557,7.43.715,2.647-2.227,5.034-4.074,8.486-4.148a11.394,11.394,0,0,1,6.343,2.134,6.053,6.053,0,0,1,1.749-1.623,5.582,5.582,0,0,1,5.473-.34,5.532,5.532,0,0,1,1.69-1.7,3.339,3.339,0,0,0-.874-.811A7.727,7.727,0,0,0,27.8,6.449a3.861,3.861,0,0,0-2.052-4.021,4.392,4.392,0,0,0-5.437.558A4.233,4.233,0,0,0,16.175,0Z" transform="translate(239.731 496.748)" fill="#bfce18"/>
    <path id="합치기_2" data-name="합치기 2" d="M16.382,0h-.07a4.2,4.2,0,0,0-4.279,3.177A4.438,4.438,0,0,0,6.7,2.515a4.08,4.08,0,0,0-2.07,4.275,6.482,6.482,0,0,0-2.8.6,4.155,4.155,0,0,0-1.445,5.1c1.52,2.853,5.177,2.668,7.392.883C10.476,11.2,12.9,9.339,16.348,9.341c3.079,0,5.858,1.873,8.548,4.044,2.209,1.786,5.832,1.756,7.176-.764a4.273,4.273,0,0,0-1.333-5.213,7.694,7.694,0,0,0-2.9-.709A3.854,3.854,0,0,0,25.881,2.64a4.384,4.384,0,0,0-5.439.433A4.235,4.235,0,0,0,16.382,0Z" transform="translate(244.075 512.232)" fill="#57ac33"/>
    <path id="합치기_3" data-name="합치기 3" d="M11.07,0H11A3.913,3.913,0,0,0,7.01,2.964,4.119,4.119,0,0,0,0,6.109,3.709,3.709,0,0,1,1.919,7.6a5.3,5.3,0,0,1,5.269.4A5.956,5.956,0,0,1,8.535,9.151a8.65,8.65,0,0,1,2.494-.362c2.879,0,5.476,1.673,7.981,3.7,2.07,1.667,5.447,1.639,6.7-.713A4,4,0,0,0,24.47,6.91a7.256,7.256,0,0,0-2.712-.663,3.591,3.591,0,0,0-1.825-3.785,4.081,4.081,0,0,0-5.074.4A3.944,3.944,0,0,0,11.07,0Z" transform="translate(263.37 505.382)" fill="#f6e200"/>
    <path id="합치기_4" data-name="합치기 4" d="M15.819,0a4.064,4.064,0,0,0-4.153,3.061A4.318,4.318,0,0,0,6.5,2.425,3.919,3.919,0,0,0,4.494,6.541a6.384,6.384,0,0,0-2.714.577,4,4,0,0,0-1.4,4.916c1.474,2.746,5.024,2.57,7.169.849,2.61-2.083,5.027-3.848,8.367-3.846,2.989,0,5.623,1.769,8.227,3.86,2.15,1.722,5.658,1.7,6.962-.733a3.4,3.4,0,0,0,.394-1.65,6.956,6.956,0,0,1-5.326,1.23,5.251,5.251,0,0,1-3.633-2.712A4.577,4.577,0,0,1,22,6.85,5.585,5.585,0,0,1,24.41,2.3c.04-.025.089-.043.127-.068a4.268,4.268,0,0,0-4.713.732A4.1,4.1,0,0,0,15.888,0h-.069Z" transform="translate(220.381 516.374)" fill="#00a29d"/>
    <g id="그룹_7" data-name="그룹 7" transform="translate(342.786 547.01)">
      <g id="그룹_4" data-name="그룹 4" transform="translate(25.751 1.718)">
        <path id="패스_8" data-name="패스 8" d="M392.36,557.772a2.213,2.213,0,0,0-.479-1.474,1.63,1.63,0,0,0-1.314-.567,1.613,1.613,0,0,0-1.3.574,2.406,2.406,0,0,0-.484,1.594,2.276,2.276,0,0,0,.553,1.7,1.81,1.81,0,0,0,1.349.479,2.116,2.116,0,0,0,.879-.161,1.86,1.86,0,0,0,.42-.266.358.358,0,0,0,.084-.065l.158-.159.015-.029h0c.049-.065.064-.133.02-.186l-.316-.314a.162.162,0,0,0-.222.013h0a1.589,1.589,0,0,1-.459.333,1.4,1.4,0,0,1-.563.1,1,1,0,0,1-.791-.314,1.265,1.265,0,0,1-.281-.874h2.732Zm-2.732-.218a1.417,1.417,0,0,1,.114-.579.8.8,0,0,1,.316-.392.983.983,0,0,1,1.028,0,.846.846,0,0,1,.321.4,1.418,1.418,0,0,1,.114.567Z" transform="translate(-388.783 -555.731)" fill="#fff"/>
      </g>
      <g id="그룹_5" data-name="그룹 5" transform="translate(15.656 1.614)">
        <path id="패스_9" data-name="패스 9" d="M380.724,555.767a.157.157,0,0,0-.158-.153h-.494a.17.17,0,0,0-.173.153h0v.443a1.315,1.315,0,0,0-.484-.383,1.64,1.64,0,0,0-.618-.109,1.352,1.352,0,0,0-1.008.369,1.439,1.439,0,0,0-.385.7,4.9,4.9,0,0,0-.094,1.029,4.264,4.264,0,0,0,.1,1.031,1.387,1.387,0,0,0,.375.689,1.118,1.118,0,0,0,.44.279,1.549,1.549,0,0,0,.563.1,1.566,1.566,0,0,0,.608-.111,1.524,1.524,0,0,0,.5-.371v.544a1.284,1.284,0,0,1-.242.75.927.927,0,0,1-.766.324,1.259,1.259,0,0,1-.5-.085,1.632,1.632,0,0,1-.415-.285h0l-.04-.037a.158.158,0,0,0-.227-.006l-.306.324a.177.177,0,0,0,.02.238,1.706,1.706,0,0,0,.178.146,1.855,1.855,0,0,0,.514.307,2.366,2.366,0,0,0,.815.125,1.7,1.7,0,0,0,1.8-1.789v-4.214Zm-.983,2.96a.833.833,0,0,1-1.442-.011,2.2,2.2,0,0,1-.143-.915,2.238,2.238,0,0,1,.148-.925.737.737,0,0,1,.721-.41.779.779,0,0,1,.618.243,1.766,1.766,0,0,1,.242,1.093A2.256,2.256,0,0,1,379.74,558.728Z" transform="translate(-377.31 -555.614)" fill="#fff"/>
      </g>
      <path id="패스_10" data-name="패스 10" d="M363.787,555.636c.01.069,0,.13-.138.135h-.617c-.128,0-.143-.135-.148-.163-.02-.073-.069-.208-.069-.208a1.165,1.165,0,0,0-1.176-.8,1.194,1.194,0,0,0-.489.1,1.242,1.242,0,0,0-.385.267,1.3,1.3,0,0,0-.292.611,11.429,11.429,0,0,0,0,2.51,1.2,1.2,0,0,0,.292.6,1.141,1.141,0,0,0,.874.361,1.215,1.215,0,0,0,.969-.423,1.412,1.412,0,0,0,.3-.94v-.338h-1.265a.159.159,0,0,1-.148-.158v-.46a.157.157,0,0,1,.163-.151H363.8v.915a3.213,3.213,0,0,1-.128.976,1.78,1.78,0,0,1-.41.708,2.065,2.065,0,0,1-.731.515,2.348,2.348,0,0,1-.894.164,2.108,2.108,0,0,1-1.556-.636,1.815,1.815,0,0,1-.5-.98,9.654,9.654,0,0,1-.064-1.416,9.545,9.545,0,0,1,.064-1.407,1.8,1.8,0,0,1,.514-.987,2.088,2.088,0,0,1,1.551-.636,2.028,2.028,0,0,1,2.119,1.694A.873.873,0,0,1,363.787,555.636Z" transform="translate(-359.514 -553.794)" fill="#fff"/>
      <path id="패스_11" data-name="패스 11" d="M374.284,560.011a.166.166,0,0,0,.168.151h.489a.173.173,0,0,0,.178-.151h0V557.3a2.2,2.2,0,0,0-.094-.678,1.292,1.292,0,0,0-.326-.516,1.231,1.231,0,0,0-.449-.289,1.737,1.737,0,0,0-.583-.1,1.454,1.454,0,0,0-1.121.476v-.416a.171.171,0,0,0-.163-.163h-.5a.175.175,0,0,0-.168.163v4.211a.161.161,0,0,0,.153.173h.5c.084,0,.183-.067.183-.151h0v-2.588a.97.97,0,0,1,.242-.708.9.9,0,0,1,.637-.235.826.826,0,0,1,.617.234.952.952,0,0,1,.242.709Z" transform="translate(-360.981 -554)" fill="#fff"/>
      <path id="패스_12" data-name="패스 12" d="M385.763,560.011a.161.161,0,0,0,.163.151h.489a.178.178,0,0,0,.183-.151h0V557.3a2.2,2.2,0,0,0-.094-.678,1.3,1.3,0,0,0-.331-.516,1.19,1.19,0,0,0-.449-.289,1.7,1.7,0,0,0-.583-.1,1.436,1.436,0,0,0-1.116.476v-.416a.175.175,0,0,0-.168-.163h-.5a.171.171,0,0,0-.163.163v4.211a.159.159,0,0,0,.158.173h.489c.084,0,.188-.067.188-.151h0v-2.588a.968.968,0,0,1,.237-.708.9.9,0,0,1,.637-.235.818.818,0,0,1,.617.234.954.954,0,0,1,.247.709Z" transform="translate(-362.36 -554)" fill="#fff"/>
      <path id="패스_13" data-name="패스 13" d="M368.453,560a.166.166,0,0,0,.163.173h.5a.164.164,0,0,0,.168-.151v-2.835c0-.972-.583-1.458-1.734-1.458a2.335,2.335,0,0,0-.879.14,1.673,1.673,0,0,0-.637.473h0l-.1.125a.19.19,0,0,0,.02.24l.336.286a.168.168,0,0,0,.227-.037l.079-.091a1.016,1.016,0,0,1,.381-.322,1.466,1.466,0,0,1,.548-.083,1.058,1.058,0,0,1,.711.19.772.772,0,0,1,.217.6v.3h-1.116a1.592,1.592,0,0,0-1.087.334,1.126,1.126,0,0,0-.371.887,1.271,1.271,0,0,0,.326.914,1.535,1.535,0,0,0,1.126.385,1.717,1.717,0,0,0,.642-.1,1.481,1.481,0,0,0,.479-.343Zm-.173-.889a.812.812,0,0,1-.341.212,1.907,1.907,0,0,1-.464.043c-.524,0-.781-.2-.781-.606s.257-.611.761-.611h1v.343A.854.854,0,0,1,368.28,559.113Z" transform="translate(-360.278 -554.013)" fill="#fff"/>
      <g id="그룹_6" data-name="그룹 6" transform="translate(40.913 1.614)">
        <path id="패스_14" data-name="패스 14" d="M409.427,555.767a.161.161,0,0,0-.163-.153h-.494a.168.168,0,0,0-.168.153h0v.443a1.239,1.239,0,0,0-.484-.383,1.638,1.638,0,0,0-.617-.109,1.328,1.328,0,0,0-1.388,1.064,5.674,5.674,0,0,0,0,2.06,1.354,1.354,0,0,0,.38.689,1.173,1.173,0,0,0,.435.279,1.615,1.615,0,0,0,.568.1,1.583,1.583,0,0,0,.607-.111,1.524,1.524,0,0,0,.5-.371v.544a1.25,1.25,0,0,1-.247.75.911.911,0,0,1-.761.324,1.285,1.285,0,0,1-.509-.085,1.621,1.621,0,0,1-.41-.285h0l-.044-.037a.152.152,0,0,0-.222-.006l-.3.324a.176.176,0,0,0,.01.238c.049.045.128.106.183.146a1.908,1.908,0,0,0,.509.307,2.409,2.409,0,0,0,.815.125,1.7,1.7,0,0,0,1.8-1.789v-4.214Zm-.988,2.96a.714.714,0,0,1-.711.411.727.727,0,0,1-.726-.421,2.141,2.141,0,0,1-.138-.915,2.255,2.255,0,0,1,.143-.925.737.737,0,0,1,.721-.41.772.772,0,0,1,.618.243,1.8,1.8,0,0,1,.242,1.093A2.086,2.086,0,0,1,408.439,558.728Z" transform="translate(-406.018 -555.614)" fill="#fff"/>
      </g>
      <path id="패스_15" data-name="패스 15" d="M402.991,560.011a.161.161,0,0,0,.163.151h.494a.177.177,0,0,0,.178-.151h0V557.3a2.2,2.2,0,0,0-.094-.678,1.206,1.206,0,0,0-.331-.516,1.155,1.155,0,0,0-.449-.289,1.676,1.676,0,0,0-.583-.1,1.45,1.45,0,0,0-1.116.476v-.416a.171.171,0,0,0-.163-.163h-.5a.172.172,0,0,0-.168.163v4.211a.165.165,0,0,0,.158.173h.494a.177.177,0,0,0,.183-.151h0v-2.588a.932.932,0,0,1,.247-.708.867.867,0,0,1,.633-.235.852.852,0,0,1,.622.234.971.971,0,0,1,.237.709Z" transform="translate(-364.434 -554)" fill="#fff"/>
      <path id="패스_16" data-name="패스 16" d="M395.367,555.765a.16.16,0,0,0-.163-.151h-.484a.178.178,0,0,0-.183.151h0v2.713a2.174,2.174,0,0,0,.094.675,1.343,1.343,0,0,0,.326.518,1.257,1.257,0,0,0,.455.29,1.663,1.663,0,0,0,.583.1,1.456,1.456,0,0,0,1.122-.475V560a.17.17,0,0,0,.163.162h.5a.17.17,0,0,0,.163-.162v-4.211a.163.163,0,0,0-.158-.174h-.494a.176.176,0,0,0-.178.151h0v2.588a.944.944,0,0,1-.247.707.877.877,0,0,1-.632.238.843.843,0,0,1-.623-.234.964.964,0,0,1-.247-.711Z" transform="translate(-363.725 -554)" fill="#fff"/>
    </g>
    <path id="패스_17" data-name="패스 17" d="M317.449,553.888h-1.64c-.484,0-.711.2-.711.645v5.182a.354.354,0,0,0,.375.334h.573c.213,0,.371-.118.371-.309v-2.15h1.141a1.672,1.672,0,0,0,1.68-1.889A1.6,1.6,0,0,0,317.449,553.888Zm-.42,2.8h-.613v-1.894h.682c.509,0,.815.293.815.965A.82.82,0,0,1,317.03,556.685Zm4.016-2.9H320a.361.361,0,0,0-.375.342v.493a.363.363,0,0,0,.375.343h.109v4.753a.348.348,0,0,0,.37.33h.578a.349.349,0,0,0,.365-.343v-5.576A.358.358,0,0,0,321.046,553.788Zm20.3,0H340.3a.358.358,0,0,0-.375.342v.493a.359.359,0,0,0,.375.343h.109v4.753a.342.342,0,0,0,.371.33h.573a.356.356,0,0,0,.371-.343v-5.576A.358.358,0,0,0,341.35,553.788Zm-2.327,3.782h-.6a.367.367,0,0,0-.39.34v.467a.972.972,0,0,1-.01.121.672.672,0,0,1-.682.617c-.86,0-.854-.449-.854-1.911v-.357c0-1.87.262-2.125.909-2.125.346,0,.558.162.608.61a.712.712,0,0,1,0,.106v.289a.359.359,0,0,0,.375.343h.578c.207,0,.405-.124.405-.313v-.411c0-.885-.667-1.61-1.971-1.61-1.586,0-2.263.652-2.263,2.923v.847c0,1.25.054,2.591,2.124,2.591,1.186,0,2.09-.447,2.129-1.6v-.6A.337.337,0,0,0,339.023,557.57Zm7.42-3.682h-3.829a.326.326,0,0,0-.341.307v.484a.317.317,0,0,0,.341.3h1.255v4.743a.345.345,0,0,0,.371.33h.578a.359.359,0,0,0,.371-.343v-4.729h1.255a.313.313,0,0,0,.336-.3V554.2A.321.321,0,0,0,346.444,553.888Zm-14.628,4.97H329.37v-1.417h2.371a.316.316,0,0,0,.336-.305v-.46a.316.316,0,0,0-.336-.3H329.37v-1.4h2.421a.319.319,0,0,0,.341-.3V554.2a.326.326,0,0,0-.341-.307h-3.028c-.484,0-.711.2-.711.645v4.773c0,.445.227.643.711.643h3.053a.315.315,0,0,0,.336-.3v-.485A.32.32,0,0,0,331.816,558.858Zm-5.2-5.071h-.534a.36.36,0,0,0-.375.349v3.255l.015.314h-.01l-.134-.314L324.1,554.38c-.218-.458-.405-.593-.86-.593h-.124a.591.591,0,0,0-.617.655v5.263a.352.352,0,0,0,.37.343h.534a.362.362,0,0,0,.37-.346v-3.259l-.015-.312h0l.143.312,1.477,3.011c.212.46.4.594.86.594h.119a.6.6,0,0,0,.622-.657v-5.262A.351.351,0,0,0,326.614,553.788Zm24.9.239-.509-.208a.373.373,0,0,0-.479.228l-1.161,2.252-1.161-2.252a.367.367,0,0,0-.474-.228l-.509.208a.358.358,0,0,0-.148.574l1.635,2.877v2.241a.346.346,0,0,0,.375.33h.573a.356.356,0,0,0,.37-.343v-2.228l1.635-2.877A.36.36,0,0,0,351.517,554.026Z" transform="translate(-11.388 -6.777)" fill="#fff"/>
    <path id="패스_18" data-name="패스 18" d="M315.338,504.273c1.976.052,3.038-1.2,4.066-2.414,1.141-1.342,2.218-2.612,4.5-2.434a12.734,12.734,0,0,1,2.115.789c2.786,1.185,4.985,2.03,5.8,1.3a.921.921,0,0,0,.292-.723,2.108,2.108,0,0,0-.1-.587c-.316-1.114-2.149-1.384-3.923-1.645-1.438-.212-2.9-.438-3.172-1.061l.04-.021a5.825,5.825,0,0,0,.79-.518c.771-.577,1.635-1.478.445-2.016a3.759,3.759,0,0,0-3.572.444,12.472,12.472,0,0,0-2.761,2.326,11.457,11.457,0,0,1-1.329,1.232l-.608.387c-2.9,1.792-4.772,3.187-4.515,4.162C313.54,503.993,314.157,504.241,315.338,504.273Zm15.749,30.72a31.086,31.086,0,0,0-3.32,0c-1.037.067-2.109.237-3.236.237,0,0-4.777.558-5.039-.524-.2-.74.791-1.014,2.579-1.875,1.709-.828,4.624-2.541,5.41-3.584a1.626,1.626,0,0,0,.356-1,1.559,1.559,0,0,0-.124-.609,2.36,2.36,0,0,0-1.956-1.315,8.035,8.035,0,0,1-2.07-.5c-.01,0-.015-.007-.025-.009a1.693,1.693,0,0,1-.257-.146.3.3,0,0,1-.005-.421,8.133,8.133,0,0,1,1.957-1.361l.128-.069c1.4-.772,3.508-1.93,3.508-4.553,0-.075,0-.149-.005-.225-.094-2.013-2.164-3.134-6.16-3.334a12.176,12.176,0,0,0-4.451.813c-.642.235-1.744.75-1.892,1.518a1.069,1.069,0,0,0-.015.176,1.269,1.269,0,0,0,.5.936c1.235,1.119,3.434-.774,3.453-.792a3.53,3.53,0,0,1,3.379.027,2.108,2.108,0,0,1,1.21,1.36,2.4,2.4,0,0,1-.791,1.866,14.445,14.445,0,0,1-2.836,2.138,7.211,7.211,0,0,0-2.287,1.823.9.9,0,0,0,.02.84c.44.843,2.238,1.447,3.31,1.574.741.089.924.351.953.466.054.232-.015.345-.267.674a21.943,21.943,0,0,1-4.254,2.584l-1.605.864c-1.319.745-2.584,1.541-2.855,2.5a2.354,2.354,0,0,0,.41,1.878c1.067,1.147,4.14,1.038,7.252,1.007l4.372-.325c1.536-.015,2.757-.029,4.13.021,1.621.059,2.559-.09,2.939-.465a1.6,1.6,0,0,0,.212-.817C333.716,535.2,331.745,535.019,331.088,534.994Zm-11.2-21.48a16.387,16.387,0,0,1,1.966-.433,15.2,15.2,0,0,1,4.011.027l1.334.123c.879.069,5.3.357,5.8-.9.242-.6-.454-1.181-.687-1.372-1.21-1-3.033-.822-4.639-.664a6.762,6.762,0,0,1-2.994-.095,1.273,1.273,0,0,1-.781-.723c-.227-.68.331-1.673.869-2.633.573-1.027,1.116-2,.865-2.784a1.376,1.376,0,0,0-.785-.83,3.9,3.9,0,0,0-1.428-.505h0a2.007,2.007,0,0,0-1.69.535c-1.3,1.237-1.146,4.087-1.141,4.207l.01.169c.148,2.441.163,2.755-3.177,3.338a11.241,11.241,0,0,1-1.161.116c-1.112.076-2.258.157-2.628,1.069a.9.9,0,0,0,.069.854c.435.68,1.739.961,2.811,1A11.094,11.094,0,0,0,319.883,513.514Zm21.2-4.58,0,0v0ZM331.7,518.47a1.112,1.112,0,0,0,.138,1.013,3.048,3.048,0,0,0,2.282.934,7.4,7.4,0,0,0,2.831-.537,10.96,10.96,0,0,1,1.63-.459,9.637,9.637,0,0,1,3.3.031l1.1.132c.43.042,4.2.387,4.812-.854.208-.43.03-.943-.519-1.534h0c-1.023-1.084-2.554-.892-3.9-.72a4.323,4.323,0,0,1-2.436-.1c-1.126-.631-.7-1.853.084-3.644.642-1.488,1.309-3.025.069-3.8l.015.009-.02-.009-.01-.011.01.009a2.841,2.841,0,0,0-1.22-.554,1.445,1.445,0,0,0-1.255.376c-1.289,1.164-1.151,4.532-1.141,4.675l0,.17c.128,2.643.143,2.983-2.608,3.6a7.51,7.51,0,0,1-.948.125C333.01,517.408,332,517.5,331.7,518.47Zm26.623,5.433c-.148-.125-.173-.125-.42-.138a1.074,1.074,0,0,0-.464.124c-.124.026-.4.026-.623.067a4.379,4.379,0,0,1-.958.056c-.281-.03-2.208-.1-2.48-.124s-.884.04-1.116.026-.257-.07-.272-.232.069-1.343.084-1.5.218-.124.38-.124,2.213-.165,2.609-.165,2.154.056,2.455.082.385-.013.519-.151a1.8,1.8,0,0,0,.257-2.026c-.286-.274-.79-.082-.993,0a5.42,5.42,0,0,1-1.141.192c-.3.013-.978-.056-1.482-.067s-.825-.029-1.181-.056a6.913,6.913,0,0,0-.924.012c-.242.013-.42-.054-.445-.123s.015-.656,0-1.19.326-5.149.4-5.642a11.238,11.238,0,0,0,.025-2.028,2.3,2.3,0,0,0-.815-1.45c-.543-.411-1.709-.658-2.174.287a7.257,7.257,0,0,0-.351,3.15c.04.656.04,1.6.04,1.6,0,.712-.326,3.383-.326,3.986s-.094,4.012-.069,5.16a22.6,22.6,0,0,0,.613,5.685c.558,1.507,1.028,1.616,1.517,1.547s.657-.944.657-1.177.173-3.192.188-3.413,1.458-.149,1.769-.19,1.561-.082,1.833-.082,1.68.109,1.872.109.776-.083.894-.247a1.82,1.82,0,0,0,.316-.958A1.338,1.338,0,0,0,358.318,523.9Zm-16.574-3.342a2.314,2.314,0,0,0-2.485.391,7.814,7.814,0,0,1-2.08,1.231,6.8,6.8,0,0,0-2.752,3.1c-.143.352-1.937,5.528,4.486,4.646,0,0,.568,0,1.892-1.027s1.428-.965,1.734-1.6a6.532,6.532,0,0,0,.548-2.734,22.119,22.119,0,0,0,0-2.544S343.132,521.137,341.744,520.561Zm-1.739,4.5a4.084,4.084,0,0,0-.178.952c-.069.636-.267,1.356-1.556,1.212-1.116-.123-1.309-.421-1.225-1.234a1.725,1.725,0,0,1,.948-1.292,9.9,9.9,0,0,0,1.186-.729c.375-.309.588-.421.825-.042A1.771,1.771,0,0,1,340,525.063Zm8.739,7.523s-.489.318-.573.381a16.578,16.578,0,0,0-2.035,1.4,7.537,7.537,0,0,0-2.115,2.829,4.309,4.309,0,0,0,.208,3.637,3.681,3.681,0,0,0,5.079.794,5.481,5.481,0,0,0,2.831-3.753,22.54,22.54,0,0,0-.188-4.989C351.664,532.055,349.8,530.092,348.744,532.585Zm.835,4.36a5.046,5.046,0,0,1-.494,1.649,1.442,1.442,0,0,1-2.055.654c-.726-.459-.509-1.416-.385-1.778a4.984,4.984,0,0,1,.983-1.466c.558-.713.973-.722,1.5-.574C349.7,535.586,349.579,536.946,349.579,536.946Zm30.55-27.073a4.447,4.447,0,0,1,1.754-.01c.944.135,2.46.093,2.806-.442a2.754,2.754,0,0,0,.074-2.289,1.2,1.2,0,0,0-1.329-.31c-.45.1-1.843.318-2.179.34s-3.478.625-4.125.718-1.971.1-1.961-.329.035-3.421.035-3.749.02-2.372.03-2.548,0-2.145.03-2.466.044-1.127.044-1.127.188-1.58-.692-1.89a2.262,2.262,0,0,0-2.2.64,1.7,1.7,0,0,0-.637,1.556c.054.831.1,1.533.138,2.083a1.133,1.133,0,0,1,0,.129c-.02.43.02,2.481,0,3.785s-.02,3.6-.03,4-.188,2.643-.193,3.33.025,2.372-.015,3.357a34.583,34.583,0,0,0,.257,3.955c.094.636.894,2.6,1.966,2.015s.825-2.988.825-3.226.094-3.778.109-3.913.064-2.138.074-2.27-.02-.317.272-.379,1.655-.4,2.233-.483S379.749,509.955,380.129,509.873Zm-12.553,1.262c.252-.554,1-2.444.617-3.627s-.855-1.629-2.475-1.765a19.183,19.183,0,0,0-3.433.3c-.548-.031-3.626-.071-4.17-.082a3.772,3.772,0,0,0-1.867.388,1.186,1.186,0,0,0-.41,1.336,1.286,1.286,0,0,0,1.408,1.182c1.136-.071,1.289-.176,1.882-.207a20.115,20.115,0,0,1,4.565-.214s1.092.1,1.21.578-.02,1.24-1.047,2.976-1.418,2.536-1.517,2.73-.919,1.512-1.106,1.759-1.028,1.233-.81,2,1.275,1.757,2.7.474a13.421,13.421,0,0,0,1.833-2.547c.257-.391,1-1.716,1.171-2.116S367.319,511.689,367.576,511.135Zm5.182,11.919s-.084-.234-.163-.507a1.518,1.518,0,0,0-.805-.945,1.727,1.727,0,0,0-1.823.1c-.8.466-1.245.547-1.507.781a3.89,3.89,0,0,0-.894,1.19c-.42.755-.919,1.083-1.235,1.726a8.2,8.2,0,0,0-.909,2.956,3.9,3.9,0,0,0,1.971,4.191c2.06,1.055,5.088-1.628,5.321-2s.948-1.7,1.087-2,.9-2.124.178-3.3A21.878,21.878,0,0,1,372.759,523.054Zm-4.021,6.039a1.227,1.227,0,0,1-.548-1.836c.178-.178.667-.629,1.2-1.095a.737.737,0,0,1,1.047-.056,1.938,1.938,0,0,1,.613.78,1.278,1.278,0,0,1,.03.371A1.765,1.765,0,0,1,368.737,529.093Zm34.211-1.111a8.723,8.723,0,0,0-2.426-.353,58.129,58.129,0,0,0-8.7-.469c-3.5.169-8.319.945-9.11,1.034,0,0-2.169.22-2.954.308s-3.552.307-3.987.837a1.673,1.673,0,0,0,.514,2.245,2.982,2.982,0,0,0,2.431-.1,13.983,13.983,0,0,1,1.615-.463,26.907,26.907,0,0,1,4.184-.665c1.843-.155,7.514-.377,9.663-.3a22.18,22.18,0,0,1,5.256.5c1.206.409,2.544.734,3.394.083S403.882,528.312,402.948,527.981ZM382.97,514.342c.405.139.721.083,2.218-.356a8.777,8.777,0,0,1,3.527-.169c.41.069.855.328.84.793-.025.383-.331.512-.617.745a6.2,6.2,0,0,1-1.66.763c-.805.266-2.53.661-3.177,1.294s.05,1.313.39,1.422,1.991.241,2.618.311.573.361.43.567a1.808,1.808,0,0,1-.815.458,35.3,35.3,0,0,0-5.113,1.5,1.676,1.676,0,0,0-.292,3.134c.553.215.119.248,2.3.4.529.036,9.016-.3,9.683-.345s.642,0,.993-.01a8.014,8.014,0,0,0,.865-.03,1.287,1.287,0,0,0,1.072-1.41c-.035-1.109-1.294-1.084-1.635-1.043s-2.2.125-3.448.248-3.226.508-4.323.522-1.68-.107-1.551-.629c.084-.329.642-.415,1.141-.591.563-.2,2.218-.653,3.76-1.212s1.818-.834,1.6-1.629-2.569-.945-3.058-1.04-.553-.222-.543-.385.094-.218.682-.424c3.463-.931,3.69-1.575,4.016-1.986s.81-2.636-3.275-3.416a9.712,9.712,0,0,0-6.561.74C381.923,512.976,382.56,514.207,382.97,514.342Zm7.751,18.407a1.55,1.55,0,0,0-2.307-.926,1.57,1.57,0,0,1-.707.223,1.49,1.49,0,0,0-1.388.713,13.233,13.233,0,0,1-1.408,1.8,7.221,7.221,0,0,0-1.393,2.175c-.3.851-1.062,3.17.736,4.809s5.459-.793,5.716-1.088,1.062-1.545,1.2-1.773a3.414,3.414,0,0,0,.5-3.1A13.282,13.282,0,0,1,390.721,532.75Zm-1.912,5.085c-.227,1.753-1.625,1.354-1.625,1.354-1.388-.271-1.092-1.371-.909-1.661a7.352,7.352,0,0,1,.963-1.3C387.851,535.536,389.027,536.083,388.809,537.834Z" transform="translate(-11.182 -0.099)" fill="#fff"/>
  </g>
</svg>
