<?xml version="1.0" encoding="utf-8"?>
<!-- Generator: Adobe Illustrator 13.0.0, SVG Export Plug-In  -->
<!DOCTYPE svg PUBLIC "-//W3C//DTD SVG 1.1//EN" "http://www.w3.org/Graphics/SVG/1.1/DTD/svg11.dtd" [
	<!ENTITY ns_flows "http://ns.adobe.com/Flows/1.0/">
]>
<svg version="1.1"
	 xmlns="http://www.w3.org/2000/svg" xmlns:xlink="http://www.w3.org/1999/xlink" xmlns:a="http://ns.adobe.com/AdobeSVGViewerExtensions/3.0/"
	 x="0px" y="0px" width="196px" height="70px" viewBox="-0.38 -0.892 196 70" enable-background="new -0.38 -0.892 196 70"
	 xml:space="preserve">
<defs>
</defs>
<g>
	<defs>
		<path id="SVGID_1_" d="M81.052,61.492c0,3.76-3.076,6.834-6.833,6.834h-54.66c-3.759,0-6.833-3.074-6.833-6.834V6.832
			C12.726,3.074,15.8,0,19.559,0h54.66c3.757,0,6.833,3.074,6.833,6.832V61.492z"/>
	</defs>
	<linearGradient id="SVGID_2_" gradientUnits="userSpaceOnUse" x1="46.8887" y1="0" x2="46.8887" y2="68.3262">
		<stop  offset="0.25" style="stop-color:#005940"/>
		<stop  offset="0.3383" style="stop-color:#006244"/>
		<stop  offset="0.5164" style="stop-color:#177B4B"/>
		<stop  offset="0.7656" style="stop-color:#81AD4D"/>
		<stop  offset="0.95" style="stop-color:#D6E041"/>
	</linearGradient>
	<use xlink:href="#SVGID_1_"  overflow="visible" fill="url(#SVGID_2_)"/>
	<clipPath id="SVGID_3_">
		<use xlink:href="#SVGID_1_"  overflow="visible"/>
	</clipPath>
	<g clip-path="url(#SVGID_3_)">
		<path fill="#FFFFFF" d="M41.916,20.02c0,0,2.339-1.375,5.396-0.193l-0.771-2.572c0,0-2.863-2.16-5.885-1.67L41.916,20.02z"/>
		<path fill="#FFFFFF" d="M28.855,51.902c5.909-1.973,9.927-4.033,14.188-8.143c4.265-4.107,5.506-10.156,5.506-10.156
			c-2.326-1.475-5.506-0.309-5.506-0.309c-3.254,8.682-13.414,12.326-13.414,12.326c-7.75-2.637-9.229-8.293-9.229-8.293
			c-2.789-0.947-3.873,0.23-3.873,0.23c1.395,6.047,8.528,9.537,8.528,9.537c-8.262,2.541-11.98,6.738-12.604,7.5v7.033
			c0,3.834,3.136,6.969,6.97,6.969h1.205C11,61.607,23.295,53.754,28.855,51.902z"/>
	</g>
	<path opacity="0.3" clip-path="url(#SVGID_3_)" fill="#FFFFFF" d="M71.546,42.496c1.196-0.902,2.279-2.447,1.834-2.777
		c-0.309-0.229-0.622-0.016-0.775,0.137c0.322-0.457,0.719-2.645,1.158-3.475c0.703-1.348,1.12-1.637,1.424-1.51
		c1.341,0.568,0.381,3.662,0.381,3.662c-0.54,1.367-0.088,2.123-0.088,2.123s0.646-0.488,1.265-1.732s0.04-1.492,0.767-0.996
		c0.734,0.496,1.031,0.568,1.205,0.287c0.172-0.279-0.428-4.82-4.123-5.281c-3.699-0.457-4.988,1.807-5.484,2.113
		c-0.5,0.307,0.359-2.461-1.893,1.26c-1.873,3.096-1.582,6.285-1.582,6.285C65.91,46.887,70.253,43.471,71.546,42.496z
		 M48.19,63.574c4.31-2.934,5.838-7.283,5.838-7.283c2.215-5.795-5.522-3.924-7.801-3.422c-2.106,0.465-4.452,1.84-4.066,2.539
		c0.268,0.486,0.806,0.393,1.097,0.287c-0.696,0.406-2.526,3.033-3.598,3.857c-1.73,1.344-2.449,1.473-2.772,1.121
		c-1.416-1.545,1.698-5.023,1.698-5.023c1.528-1.469,1.386-2.729,1.386-2.729s-1.138,0.252-2.694,1.512
		c-1.556,1.262-0.948,1.932-1.602,0.846c-0.664-1.092-1.009-1.363-1.405-1.1c-0.393,0.266-2.329,6.572,2.236,9.391
		c4.57,2.816,7.616,0.625,8.451,0.518C45.794,63.988,43.01,67.098,48.19,63.574z M48.511,49.83c1.466-0.449,1.535,1.74,3.258,0.811
		c1.99-1.072,2.668,0.564,3.912-0.619c1.242-1.186,3.385-0.566,3.055-2.352c-0.332-1.783-3.687-4.662-4.047-5.23
		c0,0-2.472-2.021-5.363,0.84c0,0-3.341,2.912-3.458,4.736C45.748,49.846,47.042,50.281,48.511,49.83z M54.473,44.889
		c0.131-0.043,0.532,0.809,0.893,1.906c0.363,1.098,0.555,2.018,0.425,2.063c-0.133,0.041-0.535-0.813-0.898-1.908
		C54.531,45.854,54.345,44.932,54.473,44.889z M52.072,47.367c0.154-1.145,0.402-2.055,0.557-2.037c0.155,0.021,0.158,0.967,0,2.109
		c-0.15,1.146-0.401,2.053-0.554,2.035C51.922,49.455,51.922,48.508,52.072,47.367z M49.128,46.84
		c0.517-1.037,1.047-1.813,1.187-1.744s-0.166,0.961-0.683,1.996c-0.516,1.029-1.043,1.813-1.187,1.74
		C48.31,48.76,48.613,47.869,49.128,46.84z M79.07,53.48c-0.775-0.105-1.908,0.219-3.264,2.342
		c-1.354,2.125-7.783,9.463-9.037,10.049c0,0,3.451-1.115,6.565-3.252c3.113-2.127,5.995-4.824,6.634-6.33
		C80.608,54.785,79.874,53.588,79.07,53.48z M28.899,58.162c1.254,0.098,2.332-0.713,2.416-1.809s-0.863-2.061-2.112-2.156
		c-1.253-0.094-2.332,0.715-2.417,1.811C26.702,57.1,27.648,58.066,28.899,58.162z M59.534,44.332
		c1.391,0.105,2.593-0.793,2.686-2.01c0.095-1.217-0.959-2.289-2.348-2.396c-1.392-0.104-2.592,0.795-2.685,2.01
		S58.145,44.225,59.534,44.332z M65.927,66.867c-0.673,0.537-1.967,1.49-2.297,1.73h1.688c0.179-0.156,0.831-0.73,1.074-0.957
		c0.279-0.258,0.55-0.561,0.719-0.855C67.411,66.26,66.702,66.244,65.927,66.867z M29.594,60.621c0,0-0.192-0.008-0.294,0.039
		c-0.173,0.08-0.432,0.441,0.308,0.752c1.233,0.512,3.161,1.324,3.02,2.645c-0.137,1.322-0.741,3.605-2.735,2.031
		c-1.892-1.498,0.631-6.996-2.824-5.453c-0.019-0.365-0.197-0.691-0.509-0.854c-0.379-0.199-0.847-0.102-1.183,0.213
		c-0.025,0.02-0.045,0.049-0.069,0.072c0-0.025-0.007-0.051-0.01-0.07c-0.044-0.27-0.189-0.508-0.431-0.637
		c-0.306-0.158-0.672-0.104-0.947,0.115c-0.11-0.186-0.257-0.336-0.441-0.443c-0.25-0.143-0.537-0.176-0.83-0.133
		c-0.072-0.07-0.15-0.129-0.242-0.182c-0.689-0.398-1.611-0.09-2.059,0.691c-0.446,0.775-0.256,1.719,0.422,2.121
		c0.048,0.473,0.267,0.873,0.64,1.09c0.181,0.107,0.382,0.158,0.593,0.158c0.022,0,0.045-0.004,0.068-0.004l-0.126,0.236
		l-0.018,0.033c-0.25,0.475-0.105,1.043,0.328,1.268c0.213,0.113,0.458,0.121,0.68,0.041c0.025-0.01,0.048-0.023,0.074-0.033
		c-0.012,0.023-0.022,0.047-0.033,0.072c-0.248,0.566-0.089,1.199,0.388,1.449c0.295,0.156,0.64,0.127,0.939-0.037
		c0.293,0.793,1.126,2.117,2.434,2.795h5.092c0.513-0.367,1.092-1.027,1.324-1.566C33.151,67.031,36.03,61.068,29.594,60.621z
		 M78.477,49.109c0.621-1.082,2.945-5.117,1.317-6.668c-1.627-1.551-3.637-0.461-4.495,0.543c-0.928,1.084-4.11,6.904-5.196,8.686
		c-1.084,1.783-3.801,5.504-5.506,6.979c-1.705,1.471-2.091-0.389-1.317-1.631c0.777-1.238,4.109-6.668,3.875-8.916
		c-0.23-2.248-3.564-1.551-4.881,0.078c-1.317,1.627-3.583,8.129-7.29,13.104c-3.498,4.691-11.361,6.891-13.041,7.314h14.979
		C71.843,60.52,77.86,50.193,78.477,49.109z M65.462,65.779c0.311-0.854-0.697-0.543-1.086-0.154
		c-0.387,0.389-1.133,0.982-2.015,1.473c-1.521,0.85-3.805,1.342-4.632,1.5h3.911c0.392-0.17,1.692-0.752,2.201-1.1
		C64.185,67.264,65.152,66.633,65.462,65.779z M75.307,63.145c-2.681,2.748-5.134,4.859-5.841,5.453h4.852
		c1.088-0.416,4.141-2.744,4.788-4.369C79.752,62.609,77.875,60.516,75.307,63.145z"/>
</g>
<g>
	<g>
		<path fill="#BFD730" d="M56.915,11.348c-1.081-0.658-3.326-0.73-3.326-0.73s0.642-2.742-2.332-4.533
			c-3.506-2.119-6.18,0.629-6.18,0.629s-0.984-3.445-4.697-3.365c0,0-0.027,0-0.042,0h-0.037c-4.128,0.086-4.797,3.695-4.797,3.695
			s-2.784-2.664-6.083-0.611c-3.01,1.869-2.252,4.881-2.252,4.881s-2.117,0.039-3.167,0.746c-1.538,1.023-2.706,3.709-1.525,5.797
			c1.805,3.18,5.966,2.883,8.445,0.807c3.009-2.512,5.722-4.594,9.646-4.678c2.535-0.057,4.911,0.949,7.21,2.406
			c0.456-0.643,1.1-1.273,1.988-1.83c2.329-1.449,4.598-1.125,6.221-0.383c0.448-0.695,1.075-1.383,1.921-1.916
			C57.613,11.883,57.276,11.566,56.915,11.348z"/>
	</g>
</g>
<g>
	<g>
		<path fill="#54B948" d="M61.874,29.154c-1.064-0.68-3.302-0.799-3.302-0.799s0.703-2.721-2.22-4.576
			c-3.451-2.193-6.182,0.488-6.182,0.488s-0.906-3.457-4.615-3.465h-0.08c-4.122,0-4.865,3.582-4.865,3.582
			s-2.721-2.721-6.057-0.746c-3.047,1.799-2.353,4.82-2.353,4.82s-2.117-0.008-3.181,0.672c-1.549,0.988-2.779,3.641-1.643,5.75
			c1.728,3.217,5.883,3.008,8.402,0.996c3.063-2.443,5.823-4.545,9.737-4.543c3.5,0.004,6.658,2.111,9.715,4.559
			c2.512,2.014,6.629,1.98,8.158-0.861C64.524,32.924,63.425,30.145,61.874,29.154z"/>
	</g>
</g>
<g>
	<g>
		<path fill="#EEE824" d="M76.68,20.871c-0.995-0.633-3.083-0.748-3.083-0.748s0.655-2.539-2.074-4.268
			c-3.225-2.053-5.768,0.451-5.768,0.451s-0.846-3.227-4.308-3.227h-0.075c-3.845-0.004-4.539,3.342-4.539,3.342
			s-2.537-2.543-5.653-0.699c-2.117,1.252-2.358,3.363-2.309,4.244c0.973,0.309,1.685,0.965,2.176,1.676
			c1.524-0.705,3.699-1.004,5.989,0.449c0.639,0.406,1.142,0.85,1.531,1.305c0.881-0.26,1.813-0.408,2.835-0.408
			c3.271,0.002,6.224,1.887,9.072,4.174c2.353,1.879,6.19,1.848,7.619-0.805C79.147,24.389,78.125,21.793,76.68,20.871z"/>
	</g>
</g>
<g>
	<g>
		<path fill="#00AFAD" d="M29.744,38.715c-1.794-0.363-3.259-1.449-4.129-3.059c-0.424-0.785-0.607-1.627-0.606-2.461
			c0-2.086,1.169-4.135,2.738-5.127c0.046-0.027,0.101-0.049,0.145-0.076c-3.043-1.443-5.358,0.824-5.358,0.824
			s-0.878-3.34-4.473-3.344h-0.078c-3.999,0-4.721,3.451-4.721,3.451s-2.635-2.621-5.872-0.717c-2.952,1.734-2.28,4.641-2.28,4.641
			s-2.051-0.002-3.084,0.65c-1.502,0.951-2.693,3.51-1.598,5.543c1.675,3.096,5.711,2.896,8.149,0.957
			c2.967-2.35,5.714-4.338,9.51-4.336c3.397,0.004,6.391,1.994,9.351,4.352c2.444,1.941,6.432,1.914,7.913-0.826
			c0.318-0.588,0.454-1.227,0.448-1.859C34.032,38.592,31.744,39.123,29.744,38.715z"/>
	</g>
</g>
<path fill="#140F06" d="M172.461,64.252c0-0.684-0.182-1.24-0.543-1.662c-0.362-0.426-0.856-0.639-1.486-0.639
	c-0.623,0-1.115,0.217-1.481,0.646c-0.365,0.432-0.547,1.029-0.547,1.797c0,0.869,0.208,1.506,0.626,1.912
	c0.359,0.359,0.869,0.541,1.53,0.541c0.404,0,0.737-0.061,1.006-0.182c0.159-0.07,0.318-0.176,0.477-0.299
	c0.046-0.029,0.06-0.043,0.091-0.074l0.181-0.18c0.006-0.01,0.013-0.021,0.019-0.031c0.002,0,0.002,0,0.004,0h-0.002
	c0.052-0.074,0.07-0.15,0.016-0.209l-0.357-0.355c-0.064-0.063-0.173-0.057-0.25,0.014h-0.001c-0.186,0.182-0.358,0.307-0.523,0.377
	c-0.16,0.07-0.375,0.109-0.639,0.109c-0.389,0-0.691-0.119-0.902-0.354c-0.21-0.236-0.316-0.566-0.316-0.986h3.101V64.252z
	 M169.361,64.006c0-0.246,0.042-0.463,0.124-0.652c0.083-0.188,0.202-0.338,0.367-0.441c0.161-0.109,0.357-0.162,0.582-0.162
	c0.22,0,0.414,0.053,0.579,0.164c0.168,0.109,0.292,0.262,0.373,0.453c0.08,0.193,0.123,0.406,0.123,0.639H169.361z"/>
<path fill="#140F06" d="M160.81,62.006c0-0.096-0.088-0.172-0.184-0.172h-0.561c-0.096,0-0.193,0.074-0.193,0.172l0,0v0.5
	c-0.174-0.207-0.36-0.354-0.554-0.434c-0.197-0.078-0.43-0.121-0.701-0.121c-0.49,0-0.873,0.139-1.148,0.416
	c-0.214,0.213-0.358,0.475-0.431,0.783c-0.072,0.307-0.108,0.693-0.108,1.16c0,0.471,0.036,0.855,0.11,1.162
	c0.072,0.305,0.215,0.563,0.429,0.777c0.14,0.137,0.304,0.244,0.502,0.314c0.194,0.074,0.408,0.109,0.642,0.109
	c0.259,0,0.489-0.043,0.688-0.125c0.203-0.086,0.387-0.225,0.571-0.418v0.613c-0.021,0.35-0.108,0.633-0.277,0.846
	c-0.196,0.242-0.488,0.365-0.871,0.365c-0.233,0-0.424-0.031-0.574-0.098c-0.149-0.064-0.305-0.17-0.468-0.32l0,0l-0.05-0.041
	c-0.079-0.074-0.193-0.078-0.258-0.008l-0.342,0.365c-0.063,0.07-0.066,0.199,0.014,0.27c0.059,0.051,0.147,0.119,0.206,0.164
	c0.189,0.15,0.384,0.275,0.582,0.346c0.257,0.094,0.568,0.141,0.924,0.141c0.623,0,1.122-0.189,1.493-0.564
	c0.373-0.377,0.559-0.861,0.559-1.451v-4.469c0,0,0-0.002,0-0.004V62.006z M159.689,65.344c-0.15,0.309-0.424,0.463-0.814,0.463
	c-0.398,0-0.673-0.154-0.825-0.475c-0.106-0.217-0.16-0.563-0.16-1.031c0-0.461,0.057-0.809,0.17-1.043
	c0.152-0.309,0.424-0.463,0.815-0.463c0.31,0,0.543,0.092,0.702,0.273c0.184,0.217,0.275,0.629,0.275,1.232
	C159.852,64.775,159.797,65.123,159.689,65.344z"/>
<path fill="#140F06" d="M143.992,62.09c0.01,0.078-0.008,0.146-0.156,0.152h-0.705c-0.142,0-0.161-0.152-0.169-0.184
	c-0.022-0.082-0.072-0.234-0.072-0.234c-0.096-0.244-0.232-0.443-0.41-0.594c-0.24-0.203-0.549-0.307-0.929-0.307
	c-0.194,0-0.382,0.037-0.554,0.115c-0.175,0.076-0.32,0.178-0.441,0.301c-0.163,0.178-0.272,0.406-0.328,0.688
	c-0.052,0.279-0.078,0.748-0.078,1.402c0,0.689,0.025,1.164,0.075,1.428s0.162,0.488,0.331,0.672
	c0.253,0.27,0.584,0.406,0.995,0.406c0.452,0,0.819-0.158,1.097-0.477c0.227-0.264,0.342-0.619,0.342-1.061v-0.381h-1.441l0,0
	c-0.093,0-0.167-0.092-0.167-0.178v-0.52c0-0.096,0.084-0.17,0.188-0.17h2.436v1.031c0,0.441-0.047,0.809-0.138,1.102
	c-0.09,0.293-0.247,0.561-0.467,0.799c-0.252,0.264-0.53,0.457-0.836,0.58c-0.305,0.125-0.644,0.186-1.014,0.186
	c-0.7,0-1.288-0.238-1.768-0.717c-0.301-0.303-0.492-0.672-0.574-1.105c-0.05-0.271-0.075-0.803-0.075-1.596
	c0-0.787,0.025-1.316,0.075-1.586c0.082-0.439,0.275-0.811,0.578-1.113c0.479-0.479,1.066-0.717,1.769-0.717
	c0.686,0,1.25,0.199,1.693,0.6c0.363,0.336,0.599,0.775,0.717,1.311C143.965,61.924,143.987,62.035,143.992,62.09z"/>
<path fill="#140F06" d="M154.259,66.791c0,0.094,0.092,0.17,0.188,0.17h0.557c0.099,0,0.204-0.078,0.204-0.17l0,0v-3.059
	c0-0.285-0.036-0.541-0.108-0.764c-0.072-0.217-0.197-0.412-0.372-0.582c-0.146-0.145-0.313-0.254-0.515-0.326
	c-0.197-0.072-0.419-0.109-0.662-0.109c-0.518,0-0.941,0.18-1.274,0.535v-0.469c0-0.096-0.089-0.184-0.185-0.184h-0.575
	c-0.096,0-0.187,0.088-0.187,0.184v4.748c0,0.107,0.074,0.195,0.179,0.195h0.563c0.096,0,0.204-0.076,0.204-0.17l0,0v-2.918
	c0-0.354,0.095-0.619,0.279-0.799c0.19-0.178,0.431-0.266,0.724-0.266c0.29,0,0.525,0.088,0.703,0.264
	c0.179,0.174,0.277,0.443,0.277,0.801V66.791z"/>
<path fill="#140F06" d="M165.741,66.791c0,0.094,0.089,0.17,0.187,0.17h0.556c0.099,0,0.204-0.078,0.204-0.17l0,0v-3.059
	c0-0.285-0.035-0.541-0.107-0.764c-0.073-0.217-0.197-0.412-0.373-0.582c-0.146-0.145-0.314-0.254-0.515-0.326
	c-0.198-0.072-0.419-0.109-0.662-0.109c-0.517,0-0.941,0.18-1.273,0.535v-0.469c0-0.096-0.091-0.184-0.187-0.184h-0.572
	c-0.098,0-0.188,0.088-0.188,0.184v4.748c0,0.107,0.075,0.195,0.181,0.195h0.562c0.096,0,0.205-0.076,0.205-0.17l0,0v-2.918
	c0-0.354,0.093-0.619,0.28-0.799c0.188-0.178,0.428-0.266,0.722-0.266c0.29,0,0.527,0.088,0.703,0.264
	c0.18,0.174,0.279,0.443,0.279,0.801V66.791z"/>
<path fill="#140F06" d="M148.43,66.766c0,0.107,0.078,0.195,0.184,0.195h0.577c0.098,0,0.187-0.078,0.187-0.17v-3.197
	c0-1.096-0.659-1.643-1.973-1.643c-0.403,0-0.734,0.051-0.994,0.156c-0.263,0.104-0.503,0.281-0.724,0.533l0,0l-0.118,0.141
	c-0.067,0.084-0.052,0.211,0.021,0.271l0.385,0.322c0.072,0.057,0.187,0.041,0.256-0.041l0.088-0.104
	c0.133-0.174,0.279-0.295,0.433-0.361c0.157-0.064,0.364-0.096,0.625-0.096c0.372,0,0.644,0.07,0.808,0.215
	c0.165,0.146,0.247,0.371,0.247,0.678v0.34h-1.271c-0.54,0-0.949,0.129-1.233,0.377c-0.284,0.254-0.427,0.588-0.427,1
	c0,0.422,0.124,0.766,0.377,1.031c0.288,0.287,0.715,0.434,1.281,0.434c0.302,0,0.545-0.037,0.726-0.111
	c0.184-0.072,0.365-0.201,0.548-0.387V66.766z M148.232,65.764c-0.135,0.127-0.262,0.207-0.386,0.238
	c-0.126,0.033-0.3,0.049-0.529,0.049c-0.59,0-0.883-0.229-0.883-0.684c0-0.461,0.287-0.689,0.864-0.689h1.132v0.387
	C148.43,65.4,148.364,65.633,148.232,65.764z"/>
<path fill="#140F06" d="M189.516,62.006c0-0.096-0.088-0.172-0.184-0.172h-0.561c-0.094,0-0.192,0.074-0.192,0.172l0,0v0.5
	c-0.175-0.207-0.361-0.354-0.554-0.434c-0.196-0.078-0.431-0.121-0.7-0.121c-0.491,0-0.874,0.139-1.148,0.416
	c-0.216,0.213-0.358,0.475-0.432,0.783c-0.071,0.307-0.108,0.693-0.108,1.16c0,0.471,0.037,0.855,0.109,1.162
	c0.072,0.305,0.215,0.563,0.431,0.777c0.14,0.137,0.304,0.244,0.5,0.314c0.194,0.074,0.408,0.109,0.642,0.109
	c0.261,0,0.49-0.043,0.69-0.125c0.201-0.086,0.385-0.225,0.57-0.418v0.613c-0.021,0.35-0.108,0.633-0.278,0.846
	c-0.194,0.242-0.487,0.365-0.87,0.365c-0.234,0-0.424-0.031-0.575-0.098c-0.148-0.064-0.303-0.17-0.467-0.32l0,0l-0.051-0.041
	c-0.078-0.074-0.193-0.078-0.256-0.008l-0.342,0.365c-0.063,0.07-0.066,0.199,0.013,0.27c0.058,0.051,0.147,0.119,0.205,0.164
	c0.191,0.15,0.387,0.275,0.582,0.346c0.258,0.094,0.568,0.141,0.925,0.141c0.624,0,1.122-0.189,1.494-0.564
	c0.372-0.377,0.557-0.861,0.557-1.451v-4.469c0,0,0-0.002,0-0.004V62.006z M188.396,65.344c-0.15,0.309-0.422,0.463-0.814,0.463
	c-0.397,0-0.672-0.154-0.825-0.475c-0.107-0.217-0.159-0.563-0.159-1.031c0-0.461,0.057-0.809,0.17-1.043
	c0.152-0.309,0.424-0.463,0.814-0.463c0.311,0,0.543,0.092,0.703,0.273c0.182,0.217,0.274,0.629,0.274,1.232
	C188.559,64.775,188.504,65.123,188.396,65.344z"/>
<path fill="#140F06" d="M182.967,66.791c0,0.094,0.09,0.17,0.186,0.17h0.558c0.099,0,0.203-0.078,0.203-0.17l0,0v-3.059
	c0-0.285-0.034-0.541-0.106-0.764c-0.073-0.217-0.197-0.412-0.373-0.582c-0.146-0.145-0.314-0.254-0.514-0.326
	s-0.42-0.109-0.663-0.109c-0.517,0-0.942,0.18-1.273,0.535v-0.469c0-0.096-0.091-0.184-0.187-0.184h-0.572
	c-0.098,0-0.188,0.088-0.188,0.184v4.748c0,0.107,0.075,0.195,0.18,0.195h0.563c0.096,0,0.205-0.076,0.205-0.17l0,0v-2.918
	c0-0.354,0.093-0.619,0.279-0.799c0.188-0.178,0.429-0.266,0.723-0.266c0.29,0,0.526,0.088,0.704,0.264
	c0.179,0.174,0.277,0.443,0.277,0.801V66.791z"/>
<path fill="#140F06" d="M175.104,62.004c0-0.096-0.089-0.17-0.187-0.17h-0.556c-0.099,0-0.204,0.078-0.204,0.17l0,0v3.059
	c0,0.285,0.035,0.541,0.106,0.762c0.074,0.219,0.198,0.414,0.374,0.584c0.146,0.145,0.313,0.254,0.515,0.326
	c0.197,0.072,0.419,0.109,0.662,0.109c0.517,0,0.941-0.178,1.272-0.535v0.469c0,0.096,0.092,0.184,0.188,0.184h0.572
	c0.098,0,0.188-0.088,0.188-0.184v-4.748c0-0.107-0.075-0.195-0.181-0.195h-0.562c-0.096,0-0.206,0.076-0.206,0.17l0,0v2.918
	c0,0.354-0.092,0.617-0.279,0.797c-0.188,0.18-0.428,0.268-0.722,0.268c-0.29,0-0.527-0.088-0.703-0.264
	c-0.181-0.176-0.279-0.443-0.279-0.801V62.004z"/>
<path fill="#005940" d="M97.389,60.127h-1.868c-0.547,0-0.804,0.223-0.804,0.727v5.842c0,0.213,0.188,0.377,0.425,0.377h0.654
	c0.239,0,0.418-0.133,0.418-0.348v-2.424h1.298c1.311,0,1.913-0.979,1.913-2.129C99.425,60.723,98.642,60.127,97.389,60.127z
	 M96.91,63.279h-0.695v-2.135h0.775c0.577,0,0.924,0.33,0.924,1.088C97.914,62.867,97.601,63.279,96.91,63.279z M101.479,60.014
	h-1.188c-0.237,0-0.431,0.17-0.431,0.385v0.557c0,0.215,0.193,0.387,0.431,0.387h0.119v5.359c0,0.215,0.187,0.371,0.422,0.371h0.654
	c0.238,0,0.422-0.174,0.422-0.387v-6.287C101.909,60.184,101.716,60.014,101.479,60.014z M124.553,60.014h-1.188
	c-0.237,0-0.43,0.17-0.43,0.385v0.557c0,0.215,0.192,0.387,0.43,0.387h0.121v5.359c0,0.215,0.185,0.371,0.422,0.371h0.654
	c0.237,0,0.421-0.174,0.421-0.387v-6.287C124.984,60.184,124.792,60.014,124.553,60.014z M121.913,64.277h-0.68
	c-0.245,0-0.444,0.172-0.444,0.385v0.525c0,0.045-0.006,0.094-0.009,0.137c-0.028,0.414-0.396,0.695-0.775,0.695
	c-0.979,0-0.973-0.506-0.973-2.154v-0.402c0-2.109,0.299-2.396,1.029-2.396c0.392,0,0.637,0.184,0.695,0.689
	c0.003,0.025,0.004,0.082,0.004,0.119v0.326c0,0.217,0.191,0.387,0.429,0.387h0.654c0.235,0,0.46-0.139,0.46-0.354v-0.15
	c0-0.092,0-0.213,0-0.313c0-0.998-0.755-1.814-2.242-1.814c-1.8,0-2.569,0.734-2.569,3.295v0.955c0,1.41,0.067,2.922,2.415,2.922
	c1.35,0,2.373-0.504,2.423-1.805c0-0.049,0.002-0.102,0.002-0.146V64.65C122.332,64.438,122.159,64.277,121.913,64.277z
	 M130.347,60.127h-4.356c-0.212,0-0.384,0.154-0.384,0.346v0.547c0,0.191,0.172,0.334,0.384,0.334h1.43v5.348
	c0,0.215,0.186,0.371,0.422,0.371h0.655c0.236,0,0.422-0.174,0.422-0.387v-5.332h1.428c0.21,0,0.385-0.143,0.385-0.334v-0.547
	C130.732,60.281,130.557,60.127,130.347,60.127z M113.719,65.73h-2.78v-1.598l2.695,0.002c0.214,0,0.385-0.152,0.385-0.344v-0.52
	c0-0.191-0.171-0.344-0.385-0.344h-2.695v-1.574h2.752c0.214,0,0.385-0.145,0.385-0.336v-0.545c0-0.191-0.171-0.346-0.385-0.346
	h-3.446c-0.547,0-0.803,0.223-0.803,0.727v5.381c0,0.502,0.256,0.725,0.803,0.725h3.475c0.214,0,0.385-0.146,0.385-0.336v-0.547
	C114.104,65.885,113.933,65.73,113.719,65.73z M107.805,60.014h-0.607c-0.237,0-0.426,0.176-0.426,0.393v3.67l0.015,0.354h-0.005
	l-0.158-0.354l-1.677-3.395c-0.246-0.516-0.455-0.668-0.978-0.668h-0.141c-0.402,0-0.702,0.256-0.702,0.738v5.934
	c0,0.215,0.181,0.387,0.418,0.387h0.608c0.237,0,0.424-0.178,0.424-0.391v-3.674l-0.013-0.352h0.005l0.157,0.352l1.676,3.395
	c0.248,0.52,0.455,0.67,0.979,0.67h0.14c0.403,0,0.701-0.256,0.701-0.74v-5.934C108.222,60.184,108.043,60.014,107.805,60.014z
	 M136.113,60.283l-0.577-0.234c-0.363-0.141-0.524,0.211-0.547,0.256l-1.316,2.539l-1.318-2.539
	c-0.021-0.045-0.184-0.396-0.546-0.256l-0.577,0.234c-0.03,0.01-0.447,0.191-0.168,0.646l1.859,3.244v2.527
	c0,0.215,0.187,0.371,0.424,0.371h0.652c0.239,0,0.423-0.174,0.423-0.387v-2.512l1.859-3.244
	C136.56,60.475,136.142,60.293,136.113,60.283z"/>
<path fill="#005940" d="M95.229,11.719c2.247,0.059,3.454-1.355,4.624-2.721c1.293-1.514,2.516-2.945,5.108-2.744
	c0.353,0.029,1.35,0.447,2.404,0.889c3.17,1.336,5.671,2.289,6.6,1.463c0.22-0.193,0.33-0.467,0.33-0.814
	c0-0.195-0.035-0.418-0.106-0.662c-0.364-1.256-2.448-1.561-4.464-1.855c-1.635-0.238-3.303-0.494-3.604-1.195
	c0,0,0.016-0.008,0.046-0.023c0.282-0.152,0.601-0.352,0.897-0.584c0.877-0.65,1.863-1.666,0.509-2.273
	c-2.048-0.926-3.956,0.42-4.066,0.502c-1.208,0.664-2.24,1.709-3.139,2.621c-0.544,0.551-1.059,1.074-1.506,1.391l-0.695,0.436
	c-3.294,2.021-5.425,3.594-5.132,4.693C93.187,11.402,93.882,11.682,95.229,11.719z M113.129,46.354
	c-1.188-0.051-2.438-0.082-3.774,0c-1.174,0.076-2.397,0.268-3.675,0.268c0,0-5.43,0.629-5.728-0.592
	c-0.231-0.834,0.895-1.143,2.926-2.113c1.949-0.934,5.256-2.865,6.156-4.041c0.264-0.342,0.4-0.738,0.4-1.131
	c0-0.232-0.045-0.463-0.138-0.688c-0.318-0.777-1.149-1.332-2.226-1.482c-1.143-0.16-1.897-0.354-2.355-0.561
	c-0.009-0.002-0.018-0.008-0.026-0.01c-0.118-0.055-0.214-0.109-0.292-0.164c-0.17-0.154-0.105-0.338-0.008-0.475
	c0.3-0.318,0.965-0.852,2.224-1.535l0.143-0.078c1.6-0.871,3.994-2.176,3.994-5.133c0-0.084-0.003-0.168-0.005-0.254
	c-0.108-2.27-2.464-3.533-7.005-3.76c-1.941-0.098-4.004,0.533-5.058,0.916c-0.733,0.266-1.984,0.846-2.153,1.711
	c-0.011,0.066-0.018,0.133-0.018,0.199c0,0.363,0.188,0.717,0.566,1.055c1.406,1.262,3.904-0.873,3.93-0.893
	c0.354-0.309,2.18-0.885,3.835,0.031c0.816,0.447,1.277,0.963,1.377,1.533c0.104,0.607-0.199,1.314-0.898,2.104
	c-0.737,0.832-2.057,1.67-3.22,2.41c-1.233,0.777-2.298,1.455-2.602,2.055c-0.149,0.285-0.14,0.646,0.021,0.947
	c0.505,0.951,2.547,1.631,3.765,1.775c0.841,0.1,1.053,0.395,1.082,0.525c0.063,0.262-0.012,0.389-0.298,0.76
	c-0.476,0.623-2.997,1.947-4.838,2.914l-1.828,0.975c-1.499,0.84-2.935,1.736-3.245,2.814c-0.135,0.461-0.041,1.572,0.468,2.117
	c1.213,1.293,4.703,1.17,8.244,1.135l4.966-0.365c1.753-0.018,3.132-0.033,4.698,0.023c1.841,0.066,2.906-0.102,3.344-0.523
	c0.157-0.152,0.238-0.713,0.238-0.922C116.117,46.59,113.875,46.383,113.129,46.354z M100.395,22.137
	c0.704-0.186,1.438-0.377,2.236-0.488c1.784-0.244,3.008-0.123,4.56,0.031l1.512,0.139c1.003,0.078,6.024,0.402,6.596-1.018
	c0.274-0.68-0.52-1.332-0.785-1.547c-1.371-1.127-3.446-0.926-5.274-0.748c-1.321,0.127-2.565,0.25-3.401-0.107
	c-0.48-0.207-0.771-0.477-0.886-0.814c-0.257-0.768,0.374-1.887,0.987-2.969c0.654-1.158,1.272-2.252,0.988-3.139
	c-0.125-0.398-0.427-0.713-0.896-0.936c-0.129-0.078-0.827-0.479-1.626-0.57h-0.002c-0.759-0.086-1.404,0.115-1.92,0.604
	c-1.478,1.395-1.306,4.607-1.298,4.742l0.011,0.191c0.168,2.752,0.188,3.105-3.611,3.764c-0.414,0.072-0.871,0.102-1.318,0.131
	c-1.263,0.086-2.571,0.178-2.986,1.205c-0.139,0.338-0.111,0.672,0.079,0.963c0.496,0.768,1.974,1.084,3.191,1.129
	C98.04,22.75,99.237,22.438,100.395,22.137z M124.489,16.973c-0.001-0.002-0.003-0.002-0.004-0.002
	C124.486,16.971,124.488,16.971,124.489,16.973L124.489,16.973z M113.815,27.725c-0.129,0.408-0.073,0.805,0.165,1.143
	c0.5,0.715,1.67,1.012,2.594,1.053c1.251,0.055,2.252-0.283,3.217-0.605c0.582-0.197,1.187-0.4,1.848-0.518
	c1.461-0.258,2.47-0.131,3.749,0.035l1.252,0.148c0.488,0.047,4.78,0.438,5.469-0.963c0.237-0.484,0.034-1.063-0.59-1.729
	c0,0,0,0,0-0.002c-1.161-1.223-2.901-1.006-4.438-0.813c-1.081,0.135-2.101,0.262-2.77-0.107c-1.274-0.713-0.787-2.09,0.096-4.109
	c0.736-1.678,1.494-3.41,0.083-4.285c0.004,0.004,0.008,0.006,0.012,0.01c-0.002-0.002-0.007-0.004-0.013-0.01
	c-0.007-0.004-0.011-0.008-0.018-0.012c0.005,0.002,0.01,0.006,0.015,0.01c-0.104-0.08-0.697-0.525-1.388-0.625
	c-0.548-0.084-1.027,0.059-1.428,0.424c-1.46,1.313-1.305,5.109-1.298,5.271l0.009,0.191c0.145,2.98,0.162,3.363-2.966,4.063
	c-0.335,0.074-0.714,0.107-1.079,0.141C115.317,26.527,114.164,26.627,113.815,27.725z M144.079,33.85
	c-0.168-0.141-0.199-0.141-0.478-0.156c-0.279-0.014-0.386,0.109-0.525,0.141c-0.139,0.029-0.449,0.029-0.711,0.076
	s-0.758,0.092-1.081,0.063c-0.325-0.033-2.516-0.109-2.825-0.139c-0.311-0.033-1.003,0.045-1.267,0.029
	c-0.262-0.014-0.293-0.078-0.309-0.262c-0.016-0.188,0.077-1.514,0.094-1.697c0.015-0.188,0.247-0.139,0.434-0.139
	c0.185,0,2.516-0.186,2.964-0.186c0.447,0,2.453,0.063,2.792,0.092c0.342,0.029,0.435-0.016,0.589-0.17
	c0.678-0.742,0.615-1.975,0.291-2.285c-0.322-0.309-0.896-0.092-1.126,0c-0.232,0.092-0.956,0.201-1.297,0.217
	c-0.34,0.014-1.112-0.063-1.684-0.076c-0.571-0.018-0.939-0.031-1.343-0.063c-0.402-0.031-0.771,0-1.049,0.014
	c-0.277,0.016-0.479-0.061-0.51-0.139c-0.03-0.076,0.016-0.74,0-1.342c-0.016-0.604,0.372-5.807,0.449-6.361
	c0.075-0.555,0.092-1.869,0.029-2.287c-0.062-0.414-0.308-1.172-0.928-1.635c-0.616-0.463-1.944-0.742-2.468,0.324
	c-0.524,1.064-0.45,2.811-0.402,3.551c0.046,0.74,0.046,1.807,0.046,1.807c0,0.803-0.37,3.814-0.37,4.494
	c0,0.676-0.11,4.523-0.077,5.818c0.031,1.299,0.062,4.711,0.693,6.408c0.634,1.699,1.174,1.822,1.729,1.744
	c0.558-0.074,0.742-1.064,0.742-1.326c0-0.264,0.201-3.6,0.217-3.848c0.016-0.246,1.652-0.168,2.007-0.215
	c0.356-0.047,1.773-0.092,2.084-0.092c0.308,0,1.913,0.123,2.13,0.123c0.216,0,0.879-0.094,1.019-0.279
	c0.279-0.369,0.279-0.633,0.354-1.08C144.371,34.527,144.248,33.988,144.079,33.85z M125.243,30.082
	c-1.576-0.648-2.479,0.232-2.825,0.439c-0.348,0.209-0.603,0.625-2.363,1.389c-1.759,0.766-2.964,3.105-3.126,3.496
	c-0.161,0.396-2.201,6.232,5.094,5.238c0,0,0.65,0,2.155-1.158s1.621-1.088,1.969-1.807c0.347-0.719,0.6-1.691,0.625-3.082
	c0.023-1.387,0.086-2.385,0.006-2.869C126.777,31.729,126.816,30.73,125.243,30.082z M123.262,35.156
	c-0.082,0.311-0.116,0.357-0.196,1.074c-0.082,0.717-0.302,1.529-1.773,1.367c-1.272-0.139-1.482-0.475-1.387-1.391
	c0.091-0.912,0.844-1.318,1.074-1.457c0.232-0.141,0.915-0.475,1.345-0.822c0.428-0.348,0.671-0.475,0.938-0.047
	C123.529,34.311,123.262,35.156,123.262,35.156z M133.194,43.639c0,0-0.556,0.359-0.648,0.43c-0.094,0.07-1.842,1.088-2.315,1.574
	c-0.476,0.486-2,1.766-2.396,3.189c-0.394,1.426-0.59,2.805,0.232,4.1s3.229,2.445,5.775,0.896c2.548-1.555,3.105-3.467,3.212-4.232
	c0.102-0.764,0.116-4.699-0.21-5.625C136.521,43.041,134.398,40.828,133.194,43.639z M134.143,48.555
	c-0.127,0.973-0.362,1.428-0.562,1.859c-0.382,0.84-1.464,1.273-2.33,0.736c-0.832-0.518-0.579-1.596-0.441-2.004
	c0.168-0.506,0.444-0.797,1.119-1.652c0.636-0.805,1.104-0.814,1.712-0.648C134.291,47.021,134.143,48.555,134.143,48.555z
	 M168.877,18.031c0.442-0.094,0.929-0.162,1.993-0.012c1.065,0.152,2.791,0.105,3.184-0.498c0.396-0.602,0.452-2.07,0.082-2.58
	c-0.369-0.51-0.997-0.465-1.505-0.35c-0.509,0.117-2.097,0.359-2.479,0.383c-0.38,0.023-3.947,0.705-4.689,0.811
	c-0.74,0.104-2.234,0.115-2.224-0.371c0.013-0.486,0.035-3.857,0.035-4.227c0-0.371,0.023-2.674,0.036-2.873
	c0.011-0.193,0-2.418,0.034-2.779c0.034-0.357,0.049-1.271,0.049-1.271s0.216-1.781-0.79-2.131c-0.687-0.236-1.818-0.01-2.495,0.721
	c-0.404,0.314-0.789,0.852-0.728,1.754c0.063,0.938,0.119,1.729,0.156,2.35c0,0.049-0.001,0.096-0.003,0.145
	c-0.021,0.484,0.023,2.797,0,4.268c-0.021,1.473-0.019,4.059-0.029,4.506c-0.013,0.453-0.214,2.979-0.225,3.754
	c-0.013,0.775,0.034,2.674-0.013,3.785c-0.046,1.111,0.186,3.742,0.29,4.459c0.105,0.717,1.019,2.93,2.235,2.271
	c1.216-0.66,0.938-3.369,0.938-3.637s0.104-4.26,0.125-4.412c0.023-0.152,0.07-2.41,0.082-2.559c0.013-0.15-0.023-0.357,0.313-0.428
	c0.336-0.07,1.875-0.453,2.536-0.545C166.447,18.471,168.44,18.125,168.877,18.031z M154.603,19.455
	c0.287-0.625,1.135-2.756,0.703-4.09c-0.427-1.33-0.973-1.838-2.813-1.99c-1.841-0.15-3.275,0.371-3.902,0.338
	c-0.623-0.035-4.121-0.08-4.735-0.092c-0.614-0.014-1.528,0.078-2.129,0.438c-0.604,0.359-0.568,1.137-0.465,1.506
	c0.105,0.369,0.302,1.414,1.6,1.332c1.296-0.08,1.469-0.197,2.141-0.232c0.671-0.035,3.127-0.52,5.188-0.242
	c0,0,1.239,0.113,1.381,0.65c0.137,0.531-0.026,1.398-1.194,3.355c-1.171,1.957-1.609,2.859-1.726,3.078
	c-0.118,0.223-1.044,1.705-1.253,1.982c-0.205,0.279-1.167,1.391-0.923,2.258c0.242,0.869,1.445,1.98,3.068,0.533
	c1.632-1.887,1.794-2.434,2.084-2.871c0.29-0.441,1.133-1.936,1.332-2.387C153.155,22.568,154.313,20.08,154.603,19.455z
	 M160.493,32.893c0,0-0.094-0.264-0.187-0.572s-0.339-0.803-0.91-1.064c-0.571-0.264-1.158-0.418-2.07,0.107
	c-0.908,0.525-1.42,0.617-1.712,0.881c-0.293,0.262-0.54,0.492-1.02,1.342c-0.478,0.852-1.049,1.221-1.403,1.945
	c-0.357,0.727-0.944,1.99-1.034,3.334c-0.094,1.346-0.108,3.537,2.238,4.725c2.346,1.189,5.788-1.836,6.052-2.252
	c0.263-0.418,1.078-1.914,1.234-2.254c0.153-0.34,1.02-2.395,0.2-3.725C161.062,34.033,160.507,32.969,160.493,32.893z
	 M155.923,39.701c-1.284-0.572-0.818-1.867-0.618-2.07c0.2-0.201,0.756-0.709,1.358-1.234c0.6-0.523,0.926-0.186,1.188-0.063
	c0.264,0.125,0.649,0.725,0.694,0.879c0.049,0.156,0.032,0.418,0.032,0.418C158.732,39.051,157.206,40.271,155.923,39.701z
	 M194.813,38.447c-1.059-0.377-1.612-0.27-2.759-0.396c-1.146-0.129-5.918-0.719-9.897-0.529c-3.981,0.191-9.458,1.066-10.352,1.166
	c0,0-2.463,0.248-3.356,0.348c-0.896,0.098-4.039,0.346-4.533,0.943c-0.494,0.6-0.33,1.982,0.579,2.531
	c0.908,0.551,2.074,0.104,2.762-0.115c0.69-0.215,0.673-0.246,1.839-0.521c1.166-0.277,2.657-0.574,4.755-0.75
	c2.097-0.176,8.545-0.426,10.988-0.334c2.441,0.094,4.604,0.102,5.974,0.563c1.372,0.461,2.888,0.828,3.859,0.094
	C195.639,40.711,195.874,38.82,194.813,38.447z M172.102,23.07c0.463,0.156,0.817,0.094,2.518-0.4
	c1.697-0.492,3.549-0.27,4.013-0.191s0.973,0.369,0.952,0.895c-0.022,0.432-0.374,0.578-0.698,0.84
	c-0.325,0.264-1.044,0.578-1.89,0.859c-0.913,0.301-2.872,0.746-3.61,1.459c-0.744,0.709,0.061,1.48,0.445,1.604
	c0.385,0.125,2.265,0.271,2.972,0.35c0.713,0.078,0.655,0.408,0.488,0.641c-0.171,0.232-0.574,0.396-0.919,0.516
	c-0.591,0.201-3.19,0.607-5.814,1.693c-2.557,1.055-1.076,3.252-0.333,3.533c0.633,0.242,0.139,0.279,2.618,0.449
	c0.603,0.041,10.252-0.342,11.008-0.389c0.758-0.045,0.726,0,1.127-0.012c0.401-0.016,0.727,0.012,0.988-0.033
	c0.264-0.045,1.267-0.34,1.218-1.59c-0.045-1.25-1.479-1.223-1.867-1.176c-0.386,0.049-2.5,0.141-3.92,0.279
	s-3.659,0.572-4.91,0.588c-1.249,0.014-1.908-0.121-1.761-0.709c0.093-0.371,0.729-0.467,1.298-0.666
	c0.637-0.225,2.517-0.736,4.269-1.365c1.761-0.633,2.068-0.941,1.823-1.838c-0.248-0.896-2.921-1.064-3.476-1.172
	c-0.555-0.111-0.633-0.25-0.617-0.434c0.016-0.186,0.108-0.246,0.773-0.479c3.935-1.049,4.196-1.775,4.568-2.238
	c0.372-0.465,0.918-2.973-3.729-3.852c-4.646-0.883-7.457,0.834-7.457,0.834C170.913,21.529,171.639,22.918,172.102,23.07z
	 M180.911,43.824c-0.227-0.686-1.229-1.889-2.621-1.045c0,0-0.32,0.217-0.804,0.252c-0.487,0.035-1.063,0.025-1.578,0.805
	c-0.517,0.775-1.188,1.627-1.596,2.029c-0.405,0.406-1.235,1.49-1.585,2.451c-0.346,0.959-1.207,3.574,0.831,5.422
	c2.037,1.848,6.208-0.895,6.502-1.227c0.292-0.33,1.207-1.742,1.365-2c0.152-0.262,1.252-1.748,0.563-3.49
	C181.293,45.275,180.971,44.404,180.911,43.824z M178.736,49.557c-0.255,1.977-1.84,1.527-1.84,1.527
	c-1.582-0.307-1.242-1.545-1.042-1.873c0.203-0.33,0.4-0.682,1.099-1.463C177.651,46.965,178.987,47.582,178.736,49.557z"/>
</svg>
