<?xml version="1.0" encoding="utf-8"?><svg preserveAspectRatio="none slice" width="279" height="256" viewBox="0 0 279 256" xmlns="http://www.w3.org/2000/svg" xmlns:xlink="http://www.w3.org/1999/xlink"><view id="department" viewBox="0 0 150.35 128"/><svg width="150.35" height="128" viewBox="-4 -4 150.35 128" xmlns="http://www.w3.org/2000/svg"><path d="M136.387 16.022H68.031L56.266 2.092 52.131.162 51.806 0H5.954L0 5.954v108.052L5.967 120h130.42l5.968-5.981V21.957zm-123.088-2.7h35.023l2.275 2.7h-37.3zm.013 93.356V29.326l51.625.013h64.079l.012 77.339zm84.867-52.229l-15.951-1.645-6.475-14.651h-9.139l-6.481 14.651-15.958 1.645-2.821 8.678 11.961 10.692-3.387 15.667 7.39 5.375 13.859-8.06 13.871 8.06 7.385-5.375-3.381-15.652 11.947-10.706zM80.226 68.31l-1.547 4.771 1.611 7.462-6.6-3.835h-5.019l-6.591 3.835 1.6-7.462-1.548-4.771-5.693-5.1 7.6-.78 4.056-2.938 3.081-6.981 3.081 6.981 4.069 2.938 7.592.78z" fill="#4a506b"/></svg><view id="fax" viewBox="128.01 128 128 128"/><svg width="128" height="128" viewBox="-4 -4 128 128" x="128.01" y="128" xmlns="http://www.w3.org/2000/svg"><path d="M112.5 32.083v-7.122a15 15 0 00-4.4-10.606l-9.961-9.96a17.222 17.222 0 00-10.6-4.4H40.892a7.327 7.327 0 00-7.142 7.5v24.583a14.842 14.842 0 00-7.5-2.083H15a15 15 0 00-15 15v60a15 15 0 0015 15h11.25a14.851 14.851 0 009.375-3.379A14.851 14.851 0 0045 120h60a15 15 0 0015-15V45a14.925 14.925 0 00-7.5-12.917zM30 105a3.751 3.751 0 01-3.75 3.75H15a3.751 3.751 0 01-3.75-3.75V45A3.751 3.751 0 0115 41.25h11.25A3.751 3.751 0 0130 45zm15-93.75h41.25V22.5A3.751 3.751 0 0090 26.25h11.25V45H45zM108.75 105a3.751 3.751 0 01-3.75 3.75H45a3.751 3.751 0 01-3.75-3.75V56.25h67.5zM82.5 78.75H90A3.751 3.751 0 0093.75 75v-7.5A3.751 3.751 0 0090 63.75h-7.5a3.751 3.751 0 00-3.75 3.75V75a3.751 3.751 0 003.75 3.75zM60 101.25h7.5a3.751 3.751 0 003.75-3.75V90a3.751 3.751 0 00-3.75-3.75H60A3.751 3.751 0 0056.25 90v7.5a3.751 3.751 0 003.75 3.75zm0-22.5h7.5A3.751 3.751 0 0071.25 75v-7.5a3.751 3.751 0 00-3.75-3.75H60a3.751 3.751 0 00-3.75 3.75V75A3.751 3.751 0 0060 78.75zm22.5 22.5H90a3.751 3.751 0 003.75-3.75V90A3.751 3.751 0 0090 86.25h-7.5A3.751 3.751 0 0078.75 90v7.5a3.751 3.751 0 003.75 3.75z" fill="#4a506b"/></svg><view id="tel" viewBox="150.35 0 128.02 128"/><svg width="128.02" height="128" viewBox="-4 -4 128.02 128" x="150.35" xmlns="http://www.w3.org/2000/svg"><path d="M120.006 93.814a14.516 14.516 0 00-4.282-10.28l-15.477-15.5a14.657 14.657 0 00-10.341-4.309h-.02a.58.58 0 00-.2.014h-.007a14.4 14.4 0 00-10.227 4.328l-6.413 6.413-27.494-27.479 6.454-6.446a14.745 14.745 0 004.289-10.374 14.725 14.725 0 00-4.289-10.388l-15.5-15.484A14.711 14.711 0 0026.125 0a14.612 14.612 0 00-10.4 4.343L8.999 11.07a26.543 26.543 0 00-7.475 14.6L.348 32.931a27.46 27.46 0 00-.354 4.249 26.724 26.724 0 007.822 18.864l56.18 56.172a26.7 26.7 0 0018.85 7.782 24.913 24.913 0 002.545-.126l.014.067 8.965-1.43a26.85 26.85 0 0014.595-7.482l6.753-6.739a14.63 14.63 0 004.262-9.647l.034-.033V93.9zm-77.7-62.9l-11.77 11.744v8.677l38.15 38.169h8.691l11.79-11.8a.93.93 0 01.708-.294.9.9 0 01.674.294l15.509 15.51a.963.963 0 01.294.688 1.018 1.018 0 01-.334.741l-6.726 6.707a12.873 12.873 0 01-7.115 3.648l-7.18 1.155a14.643 14.643 0 01-2.185.187 13.016 13.016 0 01-9.144-3.814L17.515 46.367a12.968 12.968 0 01-3.835-9.2 14.176 14.176 0 01.174-2.03l1.183-7.268a13.018 13.018 0 013.634-7.121l6.766-6.774a1.057 1.057 0 01.742-.307.927.927 0 01.661.321l15.5 15.484a1.088 1.088 0 01.293.755 1.119 1.119 0 01-.329.687zm64.963 64.916l-.006-.006.006.006z" fill="#4a506b"/></svg><view id="time" viewBox="0 128 128.01 128"/><svg width="128.01" height="128" viewBox="-4 -4 128.01 128" y="128" xmlns="http://www.w3.org/2000/svg"><path d="M60.006 0A60.062 60.062 0 000 59.994 60.079 60.079 0 0060.006 120a60.07 60.07 0 0060-60.006A60.053 60.053 0 0060.006 0zm0 106.288a46.415 46.415 0 01-46.293-46.294 46.423 46.423 0 0146.293-46.293 46.411 46.411 0 0146.288 46.293 46.4 46.4 0 01-46.288 46.294zm23.9-51.34c-.223 0-.358.019-.427.019l-16.509.728-.336-21.776a8.063 8.063 0 00-8.066-7.949h-.074a8.076 8.076 0 00-8 8.061 1.473 1.473 0 00.025.358l.4 27.933a8.016 8.016 0 001.32 4.291 7.626 7.626 0 006.919 4.469h.316l25-1.109a7.314 7.314 0 004.3-1.621v-.007a7.344 7.344 0 002.73-5.757c.012-.155 0-.309 0-.471a7.675 7.675 0 00-7.602-7.169z" fill="#4a506b"/></svg></svg>